<?xml version="1.0" standalone="no"?>
<!DOCTYPE svg PUBLIC "-//W3C//DTD SVG 1.1//EN" "http://www.w3.org/Graphics/SVG/1.1/DTD/svg11.dtd" >
<svg xmlns="http://www.w3.org/2000/svg">
<metadata></metadata>
<defs>
<font id="berlingtregular" horiz-adv-x="1106" >
<font-face units-per-em="2048" ascent="1594" descent="-454" />
<missing-glyph horiz-adv-x="403" />
<glyph horiz-adv-x="0" />
<glyph horiz-adv-x="682" />
<glyph unicode=" "  horiz-adv-x="403" />
<glyph unicode="&#x09;" horiz-adv-x="403" />
<glyph unicode="&#xa0;" horiz-adv-x="403" />
<glyph unicode="!" horiz-adv-x="517" d="M34 1278v34l346 67l-94 -868l-41 -42l-18 607q-4 123 -26.5 168t-81.5 45q-28 0 -85 -11zM155 85q0 43 29.5 72t73.5 29q40 0 68.5 -29.5t28.5 -69.5q0 -42 -29.5 -71.5t-70.5 -29.5t-70.5 29t-29.5 70z" />
<glyph unicode="&#x22;" horiz-adv-x="651" d="M111 1365h140l-38 -549h-64zM400 1365h140l-38 -549h-64z" />
<glyph unicode="#" d="M95 488l13 68h225l47 255h-225l13 68h225l77 417h75l-77 -417h242l78 417h75l-78 -417h226l-13 -68h-225l-47 -255h225l-13 -68h-225l-78 -418h-75l78 418h-243l-77 -418h-75l77 418h-225zM408 556h242l48 255h-243z" />
<glyph unicode="$" d="M141 335h39q41 -278 352 -292v603q-18 8 -56 27q-110 52 -152.5 77t-82.5 62q-98 91 -98 235q0 156 97.5 246t291.5 112v133h55v-133q143 4 336 -49v-301h-46q-15 151 -83 217q-76 72 -207 84v-558q165 -77 231 -124q148 -106 148 -282q0 -209 -165 -321 q-78 -52 -214 -75v-155h-55v152q-242 1 -380 50zM271 1110q0 -128 111 -204q44 -30 150 -84v534q-87 -6 -143 -40q-118 -71 -118 -206zM587 43q97 15 154 58q49 37 77.5 94t28.5 118q0 93 -62.5 166.5t-197.5 138.5v-575z" />
<glyph unicode="%" horiz-adv-x="1334" d="M41 983q0 103 29.5 189.5t81.5 134.5q71 65 167 65q123 0 198 -130q66 -114 66 -275q0 -151 -66 -260q-75 -124 -202 -124q-55 0 -106.5 26.5t-83.5 70.5q-84 116 -84 303zM149 983q0 -364 161 -364q85 0 125.5 88.5t40.5 274.5q0 148 -33 239q-43 118 -138 118 q-156 0 -156 -356zM201 -7l863 1372h66l-866 -1372h-63zM751 394q0 103 29.5 189.5t81.5 134.5q70 65 167 65q123 0 198 -131q66 -114 66 -275q0 -150 -66 -260q-75 -124 -202 -124q-55 0 -106.5 26.5t-83.5 70.5q-84 116 -84 304zM859 393q0 -364 161 -364q85 0 125.5 88.5 t40.5 275.5q0 148 -33 239q-43 118 -138 118q-156 0 -156 -357z" />
<glyph unicode="&#x26;" horiz-adv-x="1332" d="M68 322q0 116 65 204t220 182l-89 103q-120 137 -120 239q0 67 34.5 133.5t93.5 113.5q101 83 233 83q140 0 227 -88q71 -72 71 -174q0 -96 -72.5 -179.5t-241.5 -180.5l427 -472q45 100 45 218q0 99 -33 134t-131 41v43q151 -9 206 -9q82 0 190 7v-41q-97 -3 -123.5 -22 t-38.5 -93q-34 -213 -87 -310l105 -111q94 -105 283 -107v-36q-93 7 -168 7q-87 0 -158 -7l-134 141q-69 -65 -129 -98q-119 -65 -265 -65q-184 0 -306 105q-104 91 -104 239zM198 393q0 -141 102 -242q53 -53 123.5 -83t139.5 -30q79 0 154 35.5t126 96.5l-464 509 q-69 -47 -104 -83q-77 -79 -77 -203zM237 1127q0 -39 18 -84t45 -76l164 -183q123 80 170.5 142.5t47.5 143.5q0 114 -79 194q-69 69 -156 69q-84 0 -149 -64q-61 -61 -61 -142z" />
<glyph unicode="'" horiz-adv-x="377" d="M117 1365h143l-38 -549h-67z" />
<glyph unicode="(" horiz-adv-x="672" d="M96 683q0 141 24 291.5t65 267.5q53 150 170 226q94 62 205 62q19 0 58 -3v-47q-24 2 -41 2q-66 0 -126 -34.5t-100 -94.5q-62 -95 -91 -293q-26 -180 -26 -377q0 -302 55 -525q31 -127 109.5 -200.5t182.5 -73.5q16 0 37 1v-46q-37 -3 -56 -3q-87 0 -166.5 38.5 t-133.5 107.5q-77 99 -121 298q-45 201 -45 403z" />
<glyph unicode=")" horiz-adv-x="672" d="M55 -115q22 -1 37 -1q69 0 130 34.5t100 94.5q62 97 91 293q26 180 26 377q0 303 -55 525q-37 150 -137 223q-70 51 -151 51q-17 0 -41 -2v47q39 3 58 3q86 0 165.5 -39t132.5 -107q77 -99 121 -298q45 -201 45 -403q0 -141 -24 -291.5t-65 -267.5q-53 -150 -170 -226 q-94 -62 -207 -62q-19 0 -56 3v46z" />
<glyph unicode="*" horiz-adv-x="785" d="M109 1122l244 99l-244 100l55 96l208 -162l-35 261h110l-35 -261l208 162l55 -96l-244 -100l244 -99l-55 -96l-208 161l35 -261h-110l36 261l-209 -161z" />
<glyph unicode="+" d="M116 649v66h404v405h66v-405h404v-66h-404v-403h-66v403h-404z" />
<glyph unicode="," horiz-adv-x="473" d="M40 -319q136 127 136 278q0 83 -37 149l170 103q13 -43 13 -92q0 -129 -69.5 -253t-190.5 -211z" />
<glyph unicode="-" horiz-adv-x="506" d="M0 412v99h506v-99h-506z" />
<glyph unicode="." horiz-adv-x="473" d="M137 85q0 43 29.5 72t73.5 29q40 0 68.5 -29.5t28.5 -69.5q0 -42 -29.5 -71.5t-70.5 -29.5t-70.5 29t-29.5 70z" />
<glyph unicode="/" horiz-adv-x="589" d="M-89 -41l572 1447h107l-584 -1447h-95z" />
<glyph unicode="0" horiz-adv-x="1105" d="M67 682q0 367 159 546q127 143 337 143q205 0 324 -151q150 -189 150 -544q0 -338 -143 -523q-126 -162 -340 -162q-205 0 -332 158q-155 191 -155 533zM216 699q0 -358 92 -527q35 -63 97.5 -99.5t137.5 -36.5q117 0 204 82q139 130 139 571q0 360 -89 513 q-35 60 -99.5 94t-142.5 34q-93 0 -173 -56q-89 -63 -126 -198q-40 -146 -40 -377z" />
<glyph unicode="1" d="M282 1288v50h18q60 0 177 9.5t172 18.5v-1146q0 -95 6 -121t32 -38q29 -14 127 -17v-44q-77 9 -266 9q-143 0 -215 -9v44q113 1 144 17q26 12 32 38t6 121v922q0 64 -3 85.5t-14 39.5q-23 39 -78 39q-52 0 -138 -18z" />
<glyph unicode="2" d="M136 0q14 61 58.5 128.5t160.5 204.5q148 174 207.5 252t107.5 159q104 176 104 313q0 101 -75 159t-204 58q-168 0 -321 -125l17 173q141 58 307 58q180 0 297 -67q128 -74 128 -227q0 -127 -86.5 -267.5t-308.5 -374.5q-181 -191 -285 -323h728v-121h-835z" />
<glyph unicode="3" d="M149 240q73 -88 164 -135.5t186 -47.5q139 0 227 85q88 84 88 215q0 173 -148 271q-81 53 -213 64l40 94q18 -1 27 -1q77 0 147 51q109 79 109 202q0 114 -88 182q-74 57 -179 57q-168 0 -329 -135v163q177 68 343 68q174 0 276 -81q107 -84 107 -219 q0 -103 -63.5 -170.5t-214.5 -125.5q104 -25 164 -68q62 -45 100 -113q47 -85 47 -183q0 -129 -79 -237q-134 -185 -424 -185q-150 0 -266 52z" />
<glyph unicode="4" d="M77 410l717 1031h29v-942h166v-80h-166v-419h-136v410h-610zM205 499h482v694z" />
<glyph unicode="5" d="M172 47v171q123 -145 304 -145q162 0 260 96q96 95 96 237q0 177 -139.5 274.5t-392.5 97.5q-31 0 -96 -3l64 590h612l-20 -119h-559l-33 -328q77 3 114 3q198 0 330 -77q110 -63 166 -176q43 -87 43 -194q0 -214 -155 -352q-142 -125 -356 -125q-109 0 -238 50z" />
<glyph unicode="6" d="M122 595q0 256 105 450q97 179 265 258q117 56 255 56q101 0 218 -34l12 -204h-26q-69 186 -269 186q-99 0 -183.5 -53.5t-137.5 -150.5q-48 -88 -71 -186.5t-32 -257.5q49 76 101 114q103 77 241 77q160 0 269 -103q122 -115 122 -309q0 -128 -62 -239 q-58 -102 -158 -157q-90 -49 -202 -49q-190 0 -304 132q-143 166 -143 470zM269 463q0 -165 88 -294q89 -130 237 -130q132 0 202 100q63 89 63 229q0 190 -100 312q-89 109 -224 109q-120 0 -196 -98q-70 -91 -70 -228z" />
<glyph unicode="7" d="M133 1238v127h821l-556 -1365h-105l550 1238h-710z" />
<glyph unicode="8" d="M138 329q0 115 72 193t240 144q-115 52 -171 88q-137 92 -137 250q0 75 36.5 147.5t101.5 126.5q120 98 291 98q160 0 263 -84q107 -88 107 -236q0 -147 -113 -236q-59 -47 -171 -96q108 -44 174 -93q137 -101 137 -266q0 -169 -132 -280q-110 -92 -288 -92 q-175 0 -287 90q-123 98 -123 246zM234 346q0 -120 94 -211q102 -99 254 -99q144 0 226 90q62 69 62 166q0 142 -155 239q-21 13 -129 68q-21 10 -80 41q-89 -31 -142 -67q-130 -86 -130 -227zM248 1085q0 -133 163 -235q41 -25 123 -67q70 -35 71 -35q119 56 161 95 q34 31 56 84t22 104q0 124 -96 203q-101 83 -240 83q-117 0 -188 -70q-72 -70 -72 -162z" />
<glyph unicode="9" d="M116 917q0 139 71 253q61 97 155 148q86 46 184 46q86 0 168 -36.5t140 -99.5q149 -163 149 -464q0 -247 -98 -439q-92 -180 -252 -265q-114 -61 -251 -61q-130 0 -239 40v199h16q22 -65 64 -107q79 -80 198 -80q112 0 210 73q119 88 176 256q41 122 41 273q0 21 -1 57 q-109 -202 -327 -202q-181 0 -296 122q-108 114 -108 287zM244 1004q0 -179 98 -316q88 -124 230 -124q127 0 198 106q63 93 63 212q0 83 -27.5 168.5t-74.5 148.5q-41 56 -103.5 88.5t-129.5 32.5q-102 0 -174 -82q-80 -89 -80 -234z" />
<glyph unicode=":" horiz-adv-x="473" d="M137 85q0 43 29.5 72t73.5 29q40 0 68.5 -29.5t28.5 -69.5q0 -42 -29.5 -71.5t-70.5 -29.5t-70.5 29t-29.5 70zM137 732q0 43 29.5 72t73.5 29q40 0 68.5 -29.5t28.5 -69.5q0 -42 -29.5 -71.5t-70.5 -29.5t-70.5 29t-29.5 70z" />
<glyph unicode=";" horiz-adv-x="473" d="M40 -319q136 127 136 278q0 83 -37 149l170 103q13 -43 13 -92q0 -129 -69.5 -253t-190.5 -211zM118 732q0 43 29.5 72t73.5 29q40 0 68.5 -29.5t28.5 -69.5q0 -42 -29.5 -71.5t-70.5 -29.5t-70.5 29t-29.5 70z" />
<glyph unicode="&#x3c;" horiz-adv-x="1024" d="M89 691v13l846 545v-70l-656 -428l656 -437v-186z" />
<glyph unicode="=" d="M116 513v66h874v-66h-874zM116 786v66h874v-66h-874z" />
<glyph unicode="&#x3e;" horiz-adv-x="1024" d="M89 128v70l655 428l-655 437v186l846 -563v-12z" />
<glyph unicode="?" horiz-adv-x="715" d="M55 1203v131q123 45 234 45q144 0 239 -56q119 -70 119 -211q0 -81 -34.5 -148t-147.5 -205q-133 -162 -174 -283l-37 -30q12 75 39 137t89 159q77 121 96 164q39 90 39 158q0 98 -80 164q-63 51 -156 51q-107 0 -226 -76zM190 85q0 43 29.5 72t73.5 29q40 0 68.5 -29.5 t28.5 -69.5q0 -42 -29.5 -71.5t-69.5 -29.5q-42 0 -71.5 29t-29.5 70z" />
<glyph unicode="@" horiz-adv-x="1577" d="M82 622q0 263 133 461q112 167 300 253q154 71 319 71q188 0 351 -90q164 -90 245 -245q65 -125 65 -285q0 -245 -142 -386q-109 -109 -264 -109q-74 0 -114 36t-40 103q0 24 10 78l25 135q-94 -146 -153 -210q-125 -137 -236 -137q-55 0 -94 46q-41 48 -41 112 q0 159 125 321q98 127 209 179t290 55q60 1 102 3l-101 -443q-17 -75 -17 -134q0 -40 22.5 -65.5t57.5 -25.5q40 0 82 26.5t71 71.5q96 143 96 351q0 236 -140 392q-157 174 -403 174q-283 0 -463 -227q-163 -205 -163 -504q0 -276 144 -439q163 -184 463 -184 q91 0 161 16.5t166 59.5l22 -44q-155 -52 -221.5 -65.5t-170.5 -13.5q-329 0 -519 190q-177 178 -177 473zM569 460q0 -34 19.5 -58.5t46.5 -24.5q94 0 237 208q95 138 139 272q8 23 16 56.5t5 34.5q-39 16 -78 16q-163 0 -273 -168q-44 -68 -78 -170t-34 -166z" />
<glyph unicode="A" horiz-adv-x="1436" d="M14 0v44q94 0 139.5 40.5t91.5 163.5l439 1174h20l527 -1240q34 -79 75.5 -107.5t129.5 -30.5v-44q-129 7 -229 7q-166 0 -272 -7v44q87 2 118 15t31 47q0 39 -28 105l-145 343h-478l-109 -339q-20 -64 -20 -100q0 -40 26.5 -55t99.5 -16v-44q-120 7 -209 7 q-109 0 -207 -7zM454 610h434l-237 570z" />
<glyph unicode="B" horiz-adv-x="1167" d="M73 0v44q57 5 80.5 13t39.5 28q22 25 30.5 72t8.5 136v779q0 89 -8.5 136t-30.5 72q-16 20 -39.5 28t-80.5 13v44q33 -3 79 -3q7 0 69 -1q33 -1 54 -1q43 0 123 4q149 8 222 8q200 0 290 -82q97 -88 97 -225q0 -243 -297 -344q127 -15 201 -53q76 -38 124 -114 q50 -79 50 -179q0 -127 -77 -224q-125 -158 -403 -158q-76 0 -225 12q-28 2 -75 2q-52 0 -174 -5zM382 295q0 -134 39 -189q49 -69 183 -69q160 0 247 77q82 72 82 207q0 159 -103 261q-108 106 -318 106q-63 0 -130 -11v-382zM382 760q55 -18 131 -18q363 0 363 258 q0 143 -103 243q-90 88 -226 88q-105 0 -136 -23q-19 -14 -24 -37.5t-5 -97.5v-413z" />
<glyph unicode="C" horiz-adv-x="1429" d="M68 649q0 255 145 462q196 279 597 279q203 0 453 -63l8 -238l-20 -6q-55 91 -119 141q-138 110 -346 110q-165 0 -295 -71q-131 -71 -197 -210q-70 -148 -70 -337q0 -308 180 -500q169 -180 403 -180q311 0 536 337l17 -131q-257 -267 -598 -267q-259 0 -445 143 q-113 87 -177 216q-72 142 -72 315z" />
<glyph unicode="D" horiz-adv-x="1520" d="M58 0v44q102 3 135 41q21 25 30 72t9 136v779q0 155 -31 199.5t-143 49.5v44q165 -7 248 -7q53 0 270 10q94 4 147 4q300 0 482 -144q119 -94 187 -250q60 -138 60 -280q0 -218 -128 -409q-102 -152 -263.5 -224.5t-399.5 -72.5q-71 0 -209 9q-82 6 -130 6 q-115 0 -264 -7zM380 269q0 -95 15.5 -137t59.5 -60q63 -27 202 -27q173 0 318 63q150 65 230 191q93 145 93 340q0 301 -207 502q-187 182 -460 182q-135 0 -251 -27v-1027z" />
<glyph unicode="E" horiz-adv-x="1186" d="M78 0v44q96 5 127 41q22 25 30.5 72t8.5 136v779q0 89 -8.5 136t-30.5 72q-31 36 -127 41v44h914l19 -305h-40q-9 142 -90 197.5t-279 55.5h-209v-566h100q258 0 294 34q36 27 41 125h39q-7 -77 -7 -166q0 -113 7 -186h-39q-9 100 -59 120.5t-287 20.5h-89l7 -458 q1 -84 10 -117t35 -47q36 -20 194 -20q139 0 224 18t128 56q62 53 84 204h36l-36 -331h-997z" />
<glyph unicode="F" horiz-adv-x="1032" d="M66 0v44q96 5 127 41q22 25 30.5 72t8.5 136v779q0 89 -8.5 136t-30.5 72q-31 36 -127 41v44h931l7 -292l-41 -8q-17 135 -67 186q-33 35 -89.5 47.5t-178.5 12.5h-246v-554h99q125 0 182.5 4t85.5 14q72 26 75 125h39q-7 -97 -7 -189q0 -87 7 -185h-39q-8 120 -61 147.5 t-278 27.5h-103v-408q0 -148 29 -196t122 -53v-44q-167 7 -237 7q-92 0 -230 -7z" />
<glyph unicode="G" horiz-adv-x="1544" d="M68 678q0 208 109 382q206 330 675 330q275 0 507 -84v-266h-47q-12 97 -67 155q-61 65 -164 100q-116 39 -246 39q-273 0 -437 -175q-89 -95 -133 -229q-33 -102 -33 -211q0 -192 94 -352q82 -141 223 -230q160 -101 331 -101q156 0 328 90v288q0 89 -26.5 116 t-118.5 32v52q105 -7 218 -7q130 0 222 7v-52q-86 0 -116.5 -32.5t-30.5 -125.5v-160q0 -98 3 -156q-294 -113 -549 -113q-365 0 -567 232q-175 202 -175 471z" />
<glyph unicode="H" horiz-adv-x="1602" d="M72 0v44q57 4 81 12.5t41 28.5q22 25 30.5 72t8.5 136v779q0 89 -8.5 136t-30.5 72q-17 20 -41 28.5t-81 12.5v44q138 -7 215 -7q115 0 261 7v-44q-96 -5 -127 -41q-21 -25 -30 -72t-9 -136v-348h838v348q0 89 -8.5 136t-30.5 72q-18 22 -41.5 29t-98.5 12v44 q138 -7 245 -7q135 0 242 7v-44q-57 -5 -80 -13t-39 -28q-22 -25 -30.5 -72t-8.5 -136v-779q0 -89 8.5 -136t30.5 -72q31 -36 126 -41v-44q-133 7 -240 7q-75 0 -234 -7v44q57 5 80.5 13t39.5 28q22 25 30.5 72t8.5 136v375h-838v-375q0 -89 9 -136t30 -72q31 -36 127 -41 v-44q-126 7 -238 7q-111 0 -238 -7z" />
<glyph unicode="I" horiz-adv-x="615" d="M67 0v44q95 5 126 41q21 25 30 72t9 136v779q0 89 -9 136t-30 72q-31 36 -126 41v44q103 -7 233 -7q164 0 250 7v-44q-97 -5 -128 -41q-22 -25 -30.5 -72t-8.5 -136v-779q0 -90 8.5 -136.5t29.5 -71.5q32 -36 129 -41v-44q-102 7 -232 7t-251 -7z" />
<glyph unicode="J" horiz-adv-x="740" d="M14 -12v198h31q30 -165 156 -165q86 0 134.5 67.5t48.5 187.5v796q0 89 -8.5 136t-30.5 72q-32 37 -129 41v44q130 -7 234 -7q120 0 241 7v-44q-57 -4 -81.5 -12.5t-41.5 -28.5q-22 -25 -30.5 -72t-8.5 -136v-621q0 -213 -93 -337q-58 -76 -127 -110t-167 -34 q-58 0 -128 18z" />
<glyph unicode="K" horiz-adv-x="1389" d="M75 0v44q57 6 79.5 13.5t38.5 27.5q22 25 30.5 72t8.5 136v779q0 150 -29 195.5t-128 53.5v44q136 -7 239 -7q101 0 242 7v-44q-104 -3 -137 -41q-22 -25 -30.5 -72t-8.5 -136v-442l524 575q32 35 32 64q0 27 -22.5 38t-81.5 14v44q143 -7 228 -7q87 0 207 7v-44 q-100 -5 -140.5 -22.5t-101.5 -80.5l-424 -436l507 -589q83 -96 128.5 -120.5t152.5 -28.5v-44q-102 7 -181 7q-81 0 -182 -7v9q0 56 -57 122l-473 548l-116 -124v-262q0 -157 31 -201t145 -48v-44q-116 7 -236 7q-145 0 -245 -7z" />
<glyph unicode="L" horiz-adv-x="1140" d="M67 0v44q95 5 126 41q21 25 30 72t9 136v779q0 145 -28 194t-116 55v44q104 -7 227 -7q132 0 235 7v-44q-97 -4 -129 -41q-22 -25 -30.5 -72t-8.5 -136v-807q0 -141 51.5 -179t244.5 -38q141 0 216.5 20t113.5 66q25 31 35 64.5t21 122.5h42l-11 -321h-1028z" />
<glyph unicode="M" horiz-adv-x="1797" d="M55 0v44q57 4 81.5 12.5t41.5 28.5q22 25 32 72t11 136l17 779v24q0 143 -31 182.5t-146 42.5v44q84 -7 152 -7q59 0 147 7l541 -1160l487 1160q81 -7 162 -7q87 0 178 7v-44q-66 -2 -94 -10t-46 -31q-35 -42 -35 -174q0 -5 1 -34l14 -779q3 -154 35 -199t142 -50v-44 q-99 7 -235 7q-125 0 -249 -7v44q72 5 100.5 20t43.5 55q16 43 16 174l-18 974l-523 -1281h-37l-547 1179v-872q0 -89 8.5 -136t30.5 -72q16 -20 37 -27t79 -14v-44q-94 7 -196 7q-92 0 -200 -7z" />
<glyph unicode="N" horiz-adv-x="1563" d="M37 1321v44h301l948 -1154l-16 861q-3 148 -34 195t-131 54v44q91 -7 202 -7q101 0 204 7v-44q-93 -6 -123 -54t-34 -195l-29 -1095h-42l-993 1205l11 -889q1 -89 10.5 -136t30.5 -72q31 -35 125 -41v-44q-91 7 -200 7q-122 0 -207 -7v44q95 5 126 41q22 25 30.5 72 t8.5 136v779q0 158 -33 202t-155 47z" />
<glyph unicode="O" horiz-adv-x="1561" d="M68 668q0 230 129 420q107 156 280 237q138 65 305 65q258 0 460 -169q110 -92 175 -219q76 -150 76 -317q0 -200 -108 -377q-111 -180 -294 -268q-137 -65 -307 -65q-277 0 -481 179q-235 205 -235 514zM234 739q0 -211 92 -388q84 -162 233 -246q123 -69 258 -69 q136 0 257 70q257 148 257 508q0 310 -168 516q-166 204 -422 204q-137 0 -258 -78q-131 -84 -194 -232q-55 -127 -55 -285z" />
<glyph unicode="P" horiz-adv-x="1066" d="M67 0v44q95 5 126 41q21 25 30 72t9 136v779q0 153 -30.5 198.5t-134.5 50.5v44q119 -3 219 -3q25 0 101 4q130 6 187 6q171 0 278 -60q167 -93 167 -300q0 -181 -137 -277q-117 -82 -330 -82q-88 0 -171 14v-374q0 -152 31 -197.5t139 -51.5v-44q-110 7 -250 7 q-137 0 -234 -7zM381 753q94 -52 184 -52q148 0 221 72q77 77 77 206q0 80 -31 153t-84 118q-89 76 -246 76q-61 0 -121 -14v-559z" />
<glyph unicode="Q" horiz-adv-x="1554" d="M68 694q0 202 106 373q92 147 241 232q161 91 351 91q150 0 291 -60q187 -81 299 -237q128 -178 128 -402q0 -227 -135 -409q-79 -106 -174.5 -169t-233.5 -101q29 -87 81 -158.5t122 -119.5q122 -85 348 -106v-39q-33 -1 -48 -1q-260 0 -444 108.5t-241 295.5 q-157 5 -280 60q-158 70 -265 211q-146 191 -146 431zM228 739q0 -210 92 -387q84 -162 233 -246q124 -69 258 -69q136 0 257 70q257 149 257 507q0 311 -168 516q-166 204 -422 204q-205 0 -351 -155q-156 -166 -156 -440z" />
<glyph unicode="R" horiz-adv-x="1301" d="M72 0v44q57 4 81 12.5t41 28.5q22 25 30.5 72t8.5 136v780q0 90 -8.5 136.5t-30.5 72.5q-17 20 -38 27t-84 12v44q31 -2 107 -2l126 -1q42 0 209 9q26 2 66 2q175 0 256 -45q74 -41 122 -118q57 -92 57 -200q0 -147 -105 -245q-63 -58 -181 -93q25 -42 122 -205 q139 -232 168.5 -278t63.5 -83q81 -89 176 -89q10 0 29 1v-33q-51 -8 -95 -8q-104 0 -169.5 36t-134.5 131q-43 59 -214 346q-55 92 -91 117.5t-121 34.5q-39 3 -81 10v-359q0 -89 8.5 -136t30.5 -72q31 -35 125 -41v-44q-106 7 -234 7q-125 0 -240 -7zM382 710 q86 -20 159 -20q144 0 227 75q93 83 93 218q0 153 -106 254q-47 45 -106.5 64.5t-147.5 19.5q-55 0 -119 -10v-601z" />
<glyph unicode="S" horiz-adv-x="981" d="M79 322h39q19 -117 73 -179q102 -116 281 -116q147 0 232 85q80 80 80 185q0 139 -138 235q-46 32 -83.5 52t-218.5 107q-143 69 -199 144q-63 84 -63 194q0 168 128 271q111 90 303 90q76 0 131.5 -8.5t217.5 -44.5v-301h-45q-7 135 -72 206q-41 45 -112.5 72.5 t-147.5 27.5q-125 0 -199 -73q-72 -71 -72 -174q0 -131 113 -210q43 -30 80 -48.5t217 -102.5q138 -65 202 -140q76 -88 76 -232q0 -175 -124 -279q-129 -108 -356 -108q-180 0 -332 53z" />
<glyph unicode="T" horiz-adv-x="1280" d="M27 1039l7 326h1201l18 -326h-52q-7 145 -61 201.5t-184 56.5h-245v-1004q0 -90 8.5 -136.5t30.5 -71.5q31 -36 128 -41v-44q-142 7 -236 7q-122 0 -252 -7v44q101 4 133 41q21 25 30 72t9 136v1004h-171q-176 0 -242.5 -54.5t-73.5 -203.5h-48z" />
<glyph unicode="U" horiz-adv-x="1522" d="M61 1321l1 44q107 -7 228 -7q118 0 233 7v-44q-57 -4 -81.5 -12.5t-41.5 -28.5q-22 -25 -31.5 -71.5t-10.5 -136.5l-8 -545v-21q0 -140 37 -231q42 -104 142 -167q111 -71 249 -71q169 0 296 103q131 106 154 306q10 84 10 253q0 463 -35 558q-11 29 -41 43t-97 21v44 q106 -7 199 -7q85 0 201 7v-44q-100 -11 -122 -45t-26 -182l-10 -445q-3 -169 -25.5 -276t-69.5 -175q-71 -105 -188 -164q-118 -59 -262 -59q-228 0 -385 134q-167 143 -167 420v10l5 533q0 145 -22 186q-16 33 -41 44.5t-91 18.5z" />
<glyph unicode="V" horiz-adv-x="1482" d="M0 1321v44q128 -7 256 -7q143 0 256 7v-44q-22 -2 -29 -3q-124 -12 -124 -94q0 -43 29 -115l385 -950l412 989q27 65 27 107q0 32 -27 47t-90 19v44q92 -7 201 -7q90 0 186 7v-44q-85 -2 -124 -33t-84 -131l-532 -1202h-40l-482 1174q-33 80 -55 114.5t-49 48.5 q-28 14 -116 29z" />
<glyph unicode="W" horiz-adv-x="1991" d="M0 1321v44q133 -7 232 -7q103 0 234 7v-44q-128 -2 -128 -69q0 -43 25 -118l302 -905l342 1167h53l370 -1139l274 880q22 70 22 104q0 42 -29.5 59t-107.5 21v44q118 -7 203 -7q80 0 199 7v-44q-93 -2 -132 -37.5t-77 -151.5l-378 -1151h-45l-362 1145l-343 -1145h-49 l-388 1118q-45 132 -88 176t-129 46z" />
<glyph unicode="X" horiz-adv-x="1475" d="M0 1321v44q152 -7 286 -7q106 0 269 7v-44q-76 -5 -100.5 -18.5t-24.5 -47.5q0 -37 34 -82l311 -407l334 429q32 40 32 75q0 46 -98 51v44q115 -7 215 -7t217 7v-44q-103 -2 -161 -32t-132 -118l-373 -451l401 -512q77 -100 120 -126.5t145 -37.5v-44q-120 7 -256 7 q-127 0 -268 -7v44q80 4 103.5 14t23.5 41q0 25 -35 72l-338 448l-331 -440q-39 -51 -39 -86q0 -45 110 -49v-44q-130 7 -218 7q-106 0 -218 -7v44q104 6 148 28q47 18 134 119l379 475l-392 505q-65 84 -123.5 116t-154.5 34z" />
<glyph unicode="Y" horiz-adv-x="1238" d="M-27 1321v44q105 -7 228 -7q104 0 234 7v-44q-68 -3 -90.5 -16t-22.5 -49q0 -40 33 -98l312 -560l308 601q23 45 23 74q0 25 -21 34.5t-90 13.5v44q100 -7 177 -7q66 0 174 7v-44q-82 -4 -116.5 -26.5t-73.5 -94.5l-344 -653v-254q0 -89 9 -136t30 -72q17 -20 41.5 -28.5 t81.5 -12.5v-44q-121 7 -235 7q-138 0 -243 -7v44q98 5 129 41q22 25 30.5 72t8.5 136v212l-397 705q-38 68 -70.5 87t-115.5 24z" />
<glyph unicode="Z" horiz-adv-x="1274" d="M59 0l962 1311h-285q-411 -2 -465 -37q-62 -26 -88.5 -70t-33.5 -131h-29v292h1106v-23l-943 -1284h266q198 0 321.5 13t185.5 40q101 43 114 193h34l-13 -304h-1132z" />
<glyph unicode="[" horiz-adv-x="678" d="M154 -137v1639h358v-37h-43q-111 0 -146 -40t-35 -167v-1151q0 -75 8.5 -112t29.5 -57q33 -33 143 -38h43v-37h-358z" />
<glyph unicode="\" horiz-adv-x="589" d="M-1 1406h107l572 -1447h-95z" />
<glyph unicode="]" horiz-adv-x="678" d="M166 -100h43q111 0 146 40t35 167v1151q0 76 -8.5 112.5t-29.5 56.5q-33 33 -143 38h-43v37h358v-1639h-358v37z" />
<glyph unicode="^" horiz-adv-x="1024" d="M-49 588l564 846h12l546 -846h-70l-429 656l-437 -656h-186z" />
<glyph unicode="_" horiz-adv-x="1024" d="M50 -179h923v-79h-923v79z" />
<glyph unicode="`" horiz-adv-x="1024" d="M299 1283h161q19 -66 58.5 -116.5t97.5 -84.5l-5 -18q-95 8 -178.5 66.5t-133.5 152.5z" />
<glyph unicode="a" horiz-adv-x="853" d="M61 194q0 59 42.5 102.5t139.5 83.5q116 48 291 112v92q0 106 -46 160q-50 58 -129 58q-61 0 -103 -40q-38 -37 -38 -83q0 -29 23 -71l-104 -55q-32 48 -32 84q0 85 135 161q112 63 183 63q64 0 119 -30t82 -79q38 -68 38 -246v-276q0 -78 15 -108.5t53 -30.5q28 0 64 20 v-41l-216 -95q-29 46 -40 129q-142 -122 -273 -122q-89 0 -146 66q-58 67 -58 146zM195 223q0 -74 58 -125q44 -38 94 -38q79 0 187 90v297l-169 -68q-103 -41 -136.5 -72t-33.5 -84z" />
<glyph unicode="b" horiz-adv-x="1060" d="M19 1338v45q147 58 291 135v-774q113 69 179.5 93.5t138.5 24.5q152 0 257 -116q113 -125 113 -303q0 -202 -144 -343q-128 -125 -294 -125q-76 0 -185.5 17.5t-202.5 44.5q9 69 9 159v1025q0 86 -13 114q-16 35 -56 35q-25 0 -93 -32zM310 94q127 -74 246 -74 q136 0 224 104q86 103 86 254q0 171 -104 293q-86 102 -224 102q-113 0 -228 -83v-596z" />
<glyph unicode="c" horiz-adv-x="847" d="M61 424q0 163 98 283q135 164 378 164q118 0 228 -44l20 -152l-24 -5q-105 152 -279 152q-119 0 -195 -64q-105 -89 -105 -256q0 -187 114 -325q49 -58 119 -90.5t148 -32.5q111 0 251 75l5 -31q-163 -123 -332 -123q-159 0 -279 109q-147 134 -147 340z" />
<glyph unicode="d" horiz-adv-x="1084" d="M61 396q0 227 163 367q126 108 279 108q97 0 250 -67v413q0 83 -15 115.5t-52 32.5q-33 0 -92 -29v43q127 49 288 134v-1235q0 -98 17 -138t60 -40q31 0 76 24v-41l-251 -117q-22 48 -31 139q-103 -75 -171.5 -102.5t-148.5 -27.5q-157 0 -262 115q-110 121 -110 306z M185 467q0 -164 96 -285t232 -121q117 0 240 102v532q-129 121 -264 121q-125 0 -210 -90q-94 -101 -94 -259z" />
<glyph unicode="e" horiz-adv-x="867" d="M61 433q0 200 128 327q112 111 279 111q119 0 205 -54q74 -47 105 -112t37 -187h-617q0 -169 53 -280q50 -102 136 -153q77 -45 164 -45q110 0 241 66v-39q-156 -92 -299 -92q-175 0 -296 117q-64 63 -100 152.5t-36 188.5zM203 568h470q-20 257 -229 257q-99 0 -165 -70 t-76 -187z" />
<glyph unicode="f" horiz-adv-x="684" d="M43 780v67h173v224q0 230 114 344q104 105 299 105q67 0 144 -18v-228h-38q-8 74 -34 115q-50 80 -152 80q-110 0 -163 -90q-41 -67 -41 -252v-280h304l-27 -67h-277v-560q0 -95 6 -120.5t32 -38.5q26 -12 108 -17v-44q-109 8 -215 8q-87 0 -206 -8v44q82 5 108 17 q26 13 32 38.5t6 120.5v560h-173z" />
<glyph unicode="g" horiz-adv-x="881" d="M52 -176q0 103 93 155q37 21 112 43q-139 37 -139 119q0 46 37.5 85t145.5 106q-199 80 -199 256q0 129 108 211q92 70 202 70q83 0 164 -36h305l-46 -63h-174q73 -90 73 -184q0 -116 -88.5 -196t-217.5 -80q-40 0 -78 12q-120 -70 -120 -134q0 -43 74 -54q49 -8 226 -22 q145 -11 216 -56q44 -27 69.5 -78.5t25.5 -112.5q0 -65 -29 -121t-79 -87q-101 -62 -284 -62q-175 0 -286 57q-51 27 -81 73t-30 99zM144 -179q0 -84 86 -137q81 -51 224 -51q142 0 222 55q74 50 74 136q0 179 -340 179q-127 0 -195 -50q-71 -53 -71 -132zM227 608 q0 -116 55 -188.5t142 -72.5q78 0 130 56q54 58 54 172q0 115 -57.5 187.5t-148.5 72.5q-76 0 -124 -58q-51 -62 -51 -169z" />
<glyph unicode="h" horiz-adv-x="1108" d="M40 1365q142 55 292 135v-803q68 64 111 92q97 62 198 62q62 0 119 -25.5t90 -68.5q34 -45 48 -109t14 -178v-250q0 -95 6 -120.5t32 -38.5q26 -12 108 -17v-44q-128 8 -202 8q-70 0 -202 -8v44q11 1 45 4q55 6 71 37.5t16 134.5v329q0 108 -56 165q-55 56 -148 56 q-113 0 -250 -119v-431q0 -94 6.5 -120.5t31.5 -38.5q25 -10 93 -17v-44q-143 8 -203 8q-67 0 -206 -8v44q83 5 110 17q26 12 32 38t6 121v983q0 86 -13 114q-16 35 -55 35q-33 0 -78 -24z" />
<glyph unicode="i" horiz-adv-x="545" d="M53 766q24 11 104 43q56 24 185 92v-681q0 -94 6.5 -120t31.5 -39q26 -11 104 -17v-44q-121 8 -214 8q-57 0 -200 -8v44l23 1q87 6 104.5 31.5t17.5 143.5v384q0 86 -13 114q-16 35 -55 35q-34 0 -78 -24zM189 1181q0 37 26 62.5t64 25.5q36 0 61.5 -26t25.5 -62 q0 -37 -26 -63t-62 -26q-37 0 -63 26t-26 63z" />
<glyph unicode="j" horiz-adv-x="474" d="M-54 -289q84 -73 144 -73q61 0 86.5 55.5t25.5 184.5v726q0 86 -13 114q-16 35 -55 35q-34 0 -78 -24l-17 37q24 10 105 43q59 24 185 92v-813q0 -153 -22 -238q-34 -135 -109.5 -207.5t-180.5 -72.5q-34 0 -71 8v133zM175 1181q0 37 26 62.5t64 25.5q36 0 61.5 -26 t25.5 -62q0 -37 -26 -63t-62 -26q-37 0 -63 26t-26 63z" />
<glyph unicode="k" horiz-adv-x="1020" d="M40 1381l30 12q123 49 261 123v-1050l301 269q21 19 21 36t-14.5 23.5t-54.5 7.5v44l30 -2q97 -6 146 -6q48 0 142 6l30 2v-44q-112 -14 -157.5 -31.5t-106.5 -71.5l-168 -146l306 -382q55 -69 100 -95.5t114 -31.5v-44q-93 8 -138 8q-47 0 -128 -8q-23 64 -78 135 l-269 340l-76 -69v-186q0 -95 6 -120.5t32 -38.5q24 -11 68 -14q21 -2 34 -3v-44q-125 8 -211 8q-70 0 -202 -8v44l22 1q87 6 104.5 31.5t17.5 143.5v999q0 85 -13 113q-16 35 -55 35q-33 0 -78 -23z" />
<glyph unicode="l" horiz-adv-x="532" d="M40 1383q24 10 105 42q58 25 185 93v-1298q0 -95 6 -120.5t32 -38.5q26 -12 109 -17v-44q-120 8 -230 8q-76 0 -194 -8v44q84 5 111 17q26 12 32 38t6 121v1001q0 85 -13 113q-16 35 -55 35q-33 0 -78 -24z" />
<glyph unicode="m" horiz-adv-x="1687" d="M53 757q77 26 109 41t182 94v-176q159 142 310 142q187 0 255 -168q158 168 323 168q123 0 199 -77q35 -35 50 -83.5t15 -127.5v-350q0 -95 6 -120.5t32 -38.5q24 -11 68 -14q17 -2 27 -3v-44q-138 8 -196 8q-56 0 -199 -8v44q11 1 51 4q55 5 69 33.5t14 138.5v327 q0 110 -52 166q-56 60 -138 60q-135 0 -257 -127q6 -34 7 -165v-261q0 -95 6 -120.5t32 -38.5q26 -11 103 -17v-44q-34 2 -115 6q-45 2 -91 2q-74 0 -198 -8v44q13 1 54 4q54 5 66.5 30.5t15.5 141.5v307q0 112 -49 177q-57 75 -164 75q-118 0 -244 -109v-450 q0 -95 6 -120.5t32 -38.5q26 -11 103 -17v-44q-33 1 -104 6q-39 2 -88 2q-86 0 -211 -8v44q10 1 50 4q55 5 69 33.5t14 138.5v375q0 85 -13 113q-16 35 -53 35q-25 0 -80 -23z" />
<glyph unicode="n" horiz-adv-x="1112" d="M53 747q21 10 99 43q44 19 118 57l70 35v-184q72 65 111 91q93 62 199 62q61 0 118 -25.5t90 -68.5q34 -45 48 -109t14 -178v-250q0 -95 6 -120.5t32 -38.5q26 -12 108 -17v-44q-128 8 -202 8q-70 0 -202 -8v44q11 1 45 4q55 6 71 37.5t16 134.5v329q0 108 -56 165 q-55 56 -148 56q-113 0 -250 -119v-431q0 -95 6 -121t31 -38q24 -10 87 -17v-44q-142 8 -201 8q-58 0 -182 -8v44q11 1 51 4q55 5 69 33.5t14 138.5v365q0 85 -13 113q-16 35 -55 35q-33 0 -78 -23z" />
<glyph unicode="o" horiz-adv-x="993" d="M61 426q0 151 85 271q125 174 355 174q178 0 301 -125q129 -132 129 -328q0 -146 -77 -264q-58 -89 -154 -136q-89 -43 -195 -43q-171 0 -295 107q-149 128 -149 344zM193 487q0 -210 115 -352q92 -115 227 -115q119 0 193 86q66 78 66 227q0 226 -114 375 q-90 116 -227 116q-109 0 -183 -81q-77 -85 -77 -256z" />
<glyph unicode="p" horiz-adv-x="1071" d="M40 759l30 12q123 50 261 123v-179q101 78 180 111.5t159 33.5q162 0 252 -120q87 -115 87 -280q0 -204 -132 -340q-126 -129 -322 -129q-106 0 -224 44v-255v-75q0 -43 14.5 -64t48.5 -29q16 -4 85 -8v-44q-145 9 -211 9q-80 0 -216 -9v44q85 5 112 17q26 13 32 38.5 t6 120.5v818q0 85 -13 113q-16 35 -55 35q-34 0 -78 -24zM331 141q114 -104 249 -104q130 0 216 86q90 89 90 266q0 195 -101 305q-77 83 -194 83q-139 0 -260 -117v-519z" />
<glyph unicode="q" horiz-adv-x="1012" d="M61 382q0 166 104 304q71 94 182 140q84 35 165 35q108 0 231 -64l128 84v-1111q0 -93 6.5 -119.5t31.5 -38.5q27 -12 109 -17v-44q-114 8 -206 8q-79 0 -215 -8v44q82 5 108 17t32 38t6 120v331q-93 -65 -161.5 -90.5t-151.5 -25.5q-162 0 -259 105q-110 119 -110 292z M188 446q0 -183 112 -295q93 -91 218 -91q119 0 225 93v579q-119 85 -236 85t-203 -78q-116 -105 -116 -293z" />
<glyph unicode="r" horiz-adv-x="737" d="M56 739q153 50 270 134q13 -51 15 -145v-69q67 116 127 163.5t141 47.5q44 0 92 -20v-161h-19q-32 76 -125 76q-132 0 -212 -188v-357q0 -95 6.5 -121t31.5 -38q26 -13 91 -17v-44q-151 8 -201 8q-45 0 -161 -6l-36 -2v44q13 1 57 4q55 5 69 33.5t14 138.5v357 q0 81 -14 115t-48 34q-30 0 -84 -24z" />
<glyph unicode="s" horiz-adv-x="712" d="M72 626q0 112 90 177q84 61 222 61q94 0 199 -32l6 -176h-23q-51 167 -207 167q-78 0 -131 -44q-49 -41 -49 -104q0 -57 37 -92t136 -72q134 -51 193 -92q95 -65 95 -179q0 -116 -84.5 -186t-225.5 -70q-110 0 -244 40l-7 206h28q12 -83 64 -132q73 -68 172 -68 q81 0 134 43.5t53 109.5q0 92 -92 143q-40 22 -189 84q-98 41 -135 89q-42 56 -42 127z" />
<glyph unicode="t" horiz-adv-x="681" d="M-2 780v17q108 67 191 160q39 46 120 176h11v-286h316l-31 -67h-285v-454q0 -130 41 -182q55 -70 154 -70q68 0 141 51l20 -18l-149 -130q-19 -7 -34 -7q-111 0 -195 57q-59 39 -83 99t-24 166v488h-193z" />
<glyph unicode="u" horiz-adv-x="1129" d="M29 728q155 64 287 135v-489q0 -147 39 -214q24 -42 73 -68t103 -26q119 0 268 121v388q0 86 -13 114q-16 35 -54 35q-32 0 -87 -30l-9 43q135 51 290 135v-666q0 -112 53 -112q36 0 75 23l16 -35q-101 -40 -238 -107q-25 62 -30 161q-86 -62 -118 -81q-120 -70 -235 -70 q-92 0 -163 59q-53 45 -74 118.5t-21 216.5v187q0 88 -14.5 118t-55.5 30q-28 0 -84 -29z" />
<glyph unicode="v" horiz-adv-x="923" d="M0 802v44q105 -8 173 -8q38 0 187 8v-44q-53 -8 -71.5 -19.5t-18.5 -37.5q0 -20 20 -70l203 -522l190 488q26 85 26 102q0 38 -40 50q-16 5 -61 9v44q98 -8 154 -8q59 0 161 8v-44q-69 0 -99 -26t-69 -119l-287 -684h-46l-277 714q-24 62 -51.5 83.5t-93.5 31.5z" />
<glyph unicode="w" horiz-adv-x="1464" d="M0 802v44q91 -8 183 -8q64 0 205 8v-44q-104 -1 -104 -65q0 -25 23 -88l188 -504l249 701h33l274 -701l168 484q23 68 23 101q0 52 -44 64q-17 4 -63 8v44q86 -8 160 -8q73 0 169 8v-44q-89 -15 -124 -51.5t-81 -159.5l-229 -618h-39l-268 676l-246 -676h-51l-246 653 q-39 105 -70.5 136t-109.5 40z" />
<glyph unicode="x" horiz-adv-x="989" d="M0 802v44q128 -8 216 -8q81 0 234 8v-44q-23 -2 -30 -2q-52 -4 -67 -10t-15 -24q0 -19 30 -60l160 -221l148 210q32 46 32 67q0 38 -87 40v44q112 -8 166 -8q36 0 139 6l39 2v-44q-82 -3 -130.5 -23.5t-83.5 -66.5l-196 -259l240 -312q44 -57 82.5 -76.5t111.5 -20.5v-44 q-144 8 -198 8q-44 0 -169 -6l-41 -2v44q12 1 16 1q62 3 62 34q0 16 -26 52l-172 235l-169 -226q-30 -40 -30 -61q0 -18 16 -25.5t63 -9.5v-44q-23 1 -82 6q-32 2 -72 2q-30 0 -166 -8v44q17 1 22 1q68 3 102 16.5t62 49.5l227 291l-264 343q-48 55 -170 57z" />
<glyph unicode="y" horiz-adv-x="934" d="M0 802v44l32 -2q100 -6 149 -6q68 0 184 8v-44q-92 -5 -92 -48q0 -34 21 -84l227 -536l169 489q25 71 25 107q0 67 -104 72v44q114 -8 157 -8q42 0 166 8v-44q-77 -3 -108.5 -33.5t-72.5 -139.5l-292 -784q-52 -142 -132 -215t-183 -73q-39 0 -74 10v161q83 -63 146 -63 q67 0 118.5 62.5t120.5 226.5l-310 738q-26 61 -56 84t-91 26z" />
<glyph unicode="z" horiz-adv-x="891" d="M50 0l593 806h-213q-171 0 -226 -38t-69 -167h-35l15 246h718l-595 -802h221q184 0 264 46t95 160h29l-14 -251h-783z" />
<glyph unicode="{" horiz-adv-x="678" d="M-39 669v28q118 7 163.5 44.5t45.5 129.5q0 30 -2 91q-3 127 -3 183q0 175 36 245q29 56 73.5 80t128.5 28q24 2 114 3q22 0 52 1v-44q-160 -2 -218 -50q-42 -35 -53.5 -86.5t-11.5 -197.5l-1 -129q0 -132 -6 -168.5t-34 -74.5q-38 -50 -107 -66v-6q97 -18 133 -118 q11 -33 13 -75.5t2 -243.5q0 -118 5 -161t24 -78q27 -54 83.5 -75.5t170.5 -22.5v-43l-30 1q-147 3 -186 7.5t-75 23.5q-114 58 -114 266q0 27 4 216l3 113q0 97 -45 135.5t-165 43.5z" />
<glyph unicode="|" horiz-adv-x="1024" d="M463 -341v1706h97v-1706h-97z" />
<glyph unicode="}" horiz-adv-x="678" d="M109 -94q121 1 178.5 26t83.5 87q14 35 17.5 74t3.5 150q0 211 3 255t19 80q38 85 126 102v6q-69 16 -107 66q-28 38 -34 73.5t-6 169.5v129q-1 145 -13 197t-53 87q-58 48 -218 50v44q31 -1 117 -2q100 -1 149 -17.5t81 -58.5q33 -45 45 -104.5t12 -179.5q0 -67 -3 -178 q-2 -61 -2 -93q0 -90 45.5 -127.5t163.5 -44.5v-28q-120 -5 -165 -43.5t-45 -135.5l3 -113q4 -192 4 -216q0 -208 -114 -266q-37 -19 -75.5 -23.5t-186.5 -7.5l-29 -1v43z" />
<glyph unicode="~" horiz-adv-x="1365" d="M249 1275q121 194 285 194q57 0 187 -44q109 -37 163 -37q114 0 206 114l27 -17q-48 -84 -126.5 -138t-152.5 -54q-43 0 -131 29q-174 57 -242 57q-54 0 -90 -23t-99 -98z" />
<glyph unicode="&#xa1;" horiz-adv-x="517" d="M137 -14l94 868l41 42l18 -607q4 -123 26.5 -168t81.5 -45q28 0 85 11v-34zM162 1278q0 42 29.5 71.5t71.5 29.5q41 0 70 -29t29 -71q0 -41 -29.5 -70.5t-71.5 -29.5q-41 0 -70 29t-29 70z" />
<glyph unicode="&#xa2;" d="M191 679q0 183 124 313q112 118 297 135v142h49v-140q151 -6 236 -44l11 -153h-21q-76 111 -226 143v-765h27q64 0 117.5 17t137.5 64l7 -33q-72 -51 -145 -81.5t-144 -39.5v-147h-49v144q-122 10 -224 75q-93 60 -146 161q-51 98 -51 209zM311 765q0 -193 117 -333 q64 -77 184 -115v763q-15 1 -22 1q-94 0 -175 -67q-104 -84 -104 -249z" />
<glyph unicode="&#xa3;" d="M90 641v64h154q-56 152 -56 254q0 198 156 312q124 92 288 92q132 0 286 -50l29 -209l-24 -7q-40 84 -77 124q-87 93 -226 93q-114 0 -187 -74q-98 -98 -98 -248q0 -111 67 -287h327v-64h-302q41 -101 41 -186q0 -158 -126 -319q130 36 182 36q60 0 201 -39 q95 -27 163 -27q91 0 183 44l13 -22q-125 -130 -294 -130q-52 0 -93 9.5t-153 46.5q-98 32 -154 32q-85 0 -190 -78l-53 80q75 46 116 88q76 78 76 185t-73 280h-176z" />
<glyph unicode="&#xa4;" horiz-adv-x="1365" d="M135 1189l54 55l186 -186q142 111 308 111q80 0 147.5 -24.5t157.5 -86.5l188 187l55 -54l-189 -189q59 -91 81.5 -155.5t22.5 -145.5q0 -82 -23 -146t-84 -153l190 -190l-54 -54l-188 188q-87 -60 -155 -84.5t-151 -24.5q-80 0 -146.5 23.5t-153.5 82.5l-186 -186 l-54 55l184 184q-61 83 -86 150t-25 149q0 142 106 309zM290 702q0 -161 115 -275q115 -115 277 -115t277 115q114 114 114 273q0 166 -113 278q-118 116 -283 116q-158 0 -273 -116q-114 -115 -114 -276z" />
<glyph unicode="&#xa5;" horiz-adv-x="1318" d="M27 1324v44q112 -7 227 -7q108 0 236 7v-44q-63 -2 -88 -17.5t-25 -51.5t33 -95l313 -568l308 605q25 50 25 74q0 49 -116 53v44q87 -7 174 -7q79 0 176 7v-44q-84 -6 -116.5 -27.5t-71.5 -96.5l-334 -637h369v-58h-378v-103h378v-57h-378v-53q4 -168 43 -210 q16 -19 37.5 -26.5t79.5 -14.5v-44q-122 8 -231 8q-139 0 -247 -8v44q98 5 129 41q22 26 30.5 73t8.5 137v53h-375v57h375v103h-375v58h341l-364 648q-34 61 -71 84t-113 29z" />
<glyph unicode="&#xa6;" horiz-adv-x="1024" d="M463 314h97v-655h-97v655zM463 686v679h97v-679h-97z" />
<glyph unicode="&#xa7;" d="M218 587q0 130 148 283q-69 64 -98.5 121t-29.5 128q0 124 89 215q88 89 246 89q132 0 266 -71v-155q-56 55 -98 86q-111 80 -219 80q-76 0 -134 -46q-59 -46 -59 -114q0 -107 150 -233l208 -175q95 -80 134 -135q67 -97 67 -209q0 -148 -131 -296q64 -81 87.5 -132 t23.5 -108q0 -60 -27 -120t-73 -102q-89 -80 -239 -80q-177 0 -282 68v161q49 -61 91 -93q98 -77 221 -77q100 0 156 49q60 52 60 121q0 94 -121 202l-250 221q-89 79 -125 135q-61 93 -61 187zM321 672q0 -64 31 -119.5t104 -120.5l265 -239q82 93 82 207q0 51 -36.5 102.5 t-126.5 129.5l-241 206q-51 -63 -64.5 -92t-13.5 -74z" />
<glyph unicode="&#xa8;" horiz-adv-x="1024" d="M273 1177q0 37 25.5 61.5t62.5 24.5q34 0 59 -25.5t25 -60.5t-25 -60.5t-60 -25.5q-36 0 -61.5 25.5t-25.5 60.5zM581 1177q0 37 25.5 61.5t62.5 24.5q34 0 59 -25.5t25 -60.5t-25 -60.5t-60 -25.5q-36 0 -61.5 25.5t-25.5 60.5z" />
<glyph unicode="&#xa9;" horiz-adv-x="1543" d="M55 688q0 307 238 522q202 182 491 182q183 0 346 -95q168 -98 263 -260q96 -164 96 -354t-96 -355t-263 -260q-166 -95 -358 -95t-358 95q-168 96 -263 260q-96 166 -96 360zM136 683q0 -172 85 -321q86 -149 233 -235q148 -86 318 -86t318 86t233 235q85 150 85 325 q0 277 -211 472q-179 165 -435 165q-163 0 -308 -86q-148 -88 -233 -235q-85 -148 -85 -320zM373 665q0 144 87 262q116 159 354 159q121 0 272 -37l5 -144l-22 -6q-89 142 -269 142q-145 0 -230 -82q-92 -90 -92 -257q0 -169 103 -275q97 -99 231 -99q181 0 318 199l13 -94 q-153 -153 -357 -153q-154 0 -265 81q-148 109 -148 304z" />
<glyph unicode="&#xaa;" horiz-adv-x="572" d="M49 666q0 52 51.5 83.5t246.5 98.5v49q0 58 -27.5 90.5t-75.5 32.5q-33 0 -57.5 -19.5t-24.5 -46.5q0 -17 17 -45l-77 -38q-25 33 -25 58q0 55 89 102q71 38 118 38q93 0 132 -68q25 -42 25 -150v-167q0 -44 7.5 -60t28.5 -16q17 0 47 16v-36l-145 -60q-21 30 -28 72 q-86 -66 -166 -66q-60 0 -98 41t-38 91zM147 684q0 -35 27 -62.5t62 -27.5q48 0 111 50v162l-97 -36q-63 -24 -83 -40.5t-20 -45.5z" />
<glyph unicode="&#xab;" horiz-adv-x="624" d="M61 445l200 304h63l-134 -304l134 -311h-63zM281 445l197 304h63l-133 -304l133 -311h-63z" />
<glyph unicode="&#xac;" horiz-adv-x="1024" d="M75 470v76h875v-546h-174v470h-701z" />
<glyph unicode="&#xad;" horiz-adv-x="506" d="M0 412v99h506v-99h-506z" />
<glyph unicode="&#xae;" horiz-adv-x="1543" d="M55 688q0 307 238 522q202 182 491 182q183 0 346 -95q168 -98 263 -260q96 -164 96 -354t-96 -355t-263 -260q-166 -95 -358 -95t-358 95q-168 96 -263 260q-96 166 -96 360zM136 683q0 -172 85 -321q86 -149 233 -235q148 -86 318 -86t318 86t233 235q85 150 85 325 q0 277 -211 472q-179 165 -435 165q-163 0 -308 -86q-148 -88 -233 -235q-85 -148 -85 -320zM437 293v38q63 5 78.5 27.5t15.5 106.5v436q-1 91 -21 113q-16 16 -73 20v38q23 -1 70 -1l73 -1q24 0 121 5q19 1 40 1q104 0 152 -26q50 -26 79.5 -76t29.5 -108 q0 -145 -164 -193q10 -17 67 -107q107 -172 135 -201q45 -48 99 -48q9 0 23 1v-32q-33 -5 -61 -5q-64 0 -103.5 20.5t-81.5 75.5q-24 32 -126 194q-32 51 -51.5 64.5t-66.5 17.5q-22 2 -40 5v-193q0 -85 16 -107.5t79 -26.5v-38q-72 5 -143 5t-147 -5zM632 704 q45 -10 86 -10q81 0 128 40q52 45 52 117q0 82 -60 137q-50 45 -145 45q-29 0 -61 -4v-325z" />
<glyph unicode="&#xaf;" horiz-adv-x="1024" d="M50 1643v79h923v-79h-923z" />
<glyph unicode="&#xb0;" horiz-adv-x="681" d="M109 1147q0 98 68 164q69 68 166 68q93 0 161 -68q68 -67 68 -163t-67 -163q-69 -69 -165 -69t-164 68q-67 68 -67 163zM177 1148q0 -71 48 -121t116 -50q67 0 115 50t48 120q0 72 -48 121.5t-118 49.5q-66 0 -113.5 -50t-47.5 -120z" />
<glyph unicode="&#xb1;" d="M116 55v66h874v-66h-874zM116 649v66h404v405h66v-405h404v-66h-404v-403h-66v403h-404z" />
<glyph unicode="&#xb2;" horiz-adv-x="718" d="M94 546q9 42 35.5 82t102.5 126q143 161 193 241q63 101 63 182q0 56 -44 88.5t-121 32.5q-103 0 -205 -82l12 122q90 36 195 36q112 0 186 -41q82 -45 82 -139q0 -77 -53.5 -161.5t-191.5 -222.5q-109 -112 -165 -179h440v-85h-529z" />
<glyph unicode="&#xb3;" horiz-adv-x="719" d="M102 715q99 -123 224 -123q82 0 134 48t52 123q0 83 -58.5 133.5t-165.5 58.5l30 69q11 -1 17 -1q62 0 108 42.5t46 100.5t-44 96t-113 38q-103 0 -209 -88v115q112 43 218 43q109 0 173 -49q69 -52 69 -135q0 -114 -154 -173q47 -13 81 -37q93 -65 93 -180 q0 -112 -88.5 -184t-227.5 -72q-95 0 -170 33z" />
<glyph unicode="&#xb4;" horiz-adv-x="1024" d="M412 1082q58 34 97.5 84.5t58.5 116.5h161q-50 -94 -133.5 -152.5t-178.5 -66.5z" />
<glyph unicode="&#xb5;" horiz-adv-x="900" d="M-5 -298q0 43 14 125q55 397 56 753v357h129v-587q0 -101 12 -150.5t44 -84.5q49 -54 133 -54q79 0 140 39.5t124 129.5v707h128v-701q0 -93 16 -124.5t63 -31.5q28 0 63 25v-31l-153 -94q-4 -2 -9 -2q-18 0 -40.5 15t-32.5 34q-15 30 -29 127q-93 -90 -137 -121 q-91 -63 -188 -63q-168 0 -224 182v-62q0 -69 3 -103.5t20 -175.5q8 -65 8 -100q0 -41 -20 -69t-49 -28t-50 26t-21 62z" />
<glyph unicode="&#xb6;" horiz-adv-x="1048" d="M94 1043q0 100 41 178.5t112 112.5q45 22 81.5 26.5t185.5 4.5h471v-45h-40q-90 0 -109.5 -24.5t-19.5 -133.5v-1169q1 -72 3 -87.5t12 -28.5q18 -25 101 -25h45v-45h-241v1511h-196v-1511h-256v45h44q54 0 77.5 5t35.5 19q13 15 15.5 31.5t3.5 88.5v726q-45 -2 -92 -2 q-67 0 -110.5 18.5t-82.5 63.5q-81 91 -81 241z" />
<glyph unicode="&#xb7;" horiz-adv-x="473" d="M137 423q0 43 29.5 72t73.5 29q40 0 68.5 -29.5t28.5 -69.5q0 -42 -29.5 -71.5t-70.5 -29.5t-70.5 29t-29.5 70z" />
<glyph unicode="&#xb8;" horiz-adv-x="1024" d="M450 -301q75 42 75 143q0 35 -23 76q35 -12 73 -12q37 0 71 12q-2 -90 -51.5 -149.5t-140.5 -81.5z" />
<glyph unicode="&#xb9;" horiz-adv-x="723" d="M188 1304v45h19q110 0 220 18v-685q0 -71 12 -83t90 -14v-40q-56 6 -170 6q-85 0 -140 -6v40q85 1 98.5 13t13.5 84v545q0 54 -10 71.5t-41 17.5t-92 -12z" />
<glyph unicode="&#xba;" horiz-adv-x="662" d="M49 804q0 140 113 220q69 50 172 50q115 0 195 -76q84 -79 84 -199q0 -139 -105 -216q-72 -53 -171 -53q-112 0 -192 64q-96 78 -96 210zM145 838q0 -113 60.5 -190.5t148.5 -77.5q73 0 114 47.5t41 132.5q0 123 -58.5 203t-148.5 80q-73 0 -115 -52.5t-42 -142.5z" />
<glyph unicode="&#xbb;" horiz-adv-x="624" d="M82 134l133 304l-133 311h63l197 -310l-197 -305h-63zM299 134l134 304l-134 311h63l200 -310l-200 -305h-63z" />
<glyph unicode="&#xbc;" horiz-adv-x="1812" d="M188 1304v45h19q110 0 220 18v-685q0 -71 12 -83t90 -14v-40q-56 6 -170 6q-85 0 -140 -6v40q85 1 98.5 13t13.5 84v545q0 54 -10 71.5t-41 17.5t-92 -12zM480 0l859 1365h66l-862 -1365h-63zM1147 242l451 622h28v-556h103v-61h-103v-247h-97v242h-382zM1253 308h276 v381z" />
<glyph unicode="&#xbd;" horiz-adv-x="1800" d="M188 1304v45h19q110 0 220 18v-685q0 -71 12 -83t90 -14v-40q-56 6 -170 6q-85 0 -140 -6v40q85 1 98.5 13t13.5 84v545q0 54 -10 71.5t-41 17.5t-92 -12zM439 0l859 1365h66l-862 -1365h-63zM1175 0q9 42 35.5 82t102.5 126q143 161 193 241q63 100 63 181q0 57 -44 89 t-121 32q-103 0 -205 -81l12 122q89 35 195 35q112 0 186 -41q82 -44 82 -139q0 -77 -53.5 -161t-191.5 -222q-109 -112 -165 -179h440v-85h-529z" />
<glyph unicode="&#xbe;" horiz-adv-x="1818" d="M102 715q99 -123 224 -123q82 0 134 48t52 123q0 83 -58.5 133.5t-165.5 58.5l30 69q11 -1 17 -1q62 0 108 42.5t46 100.5t-44 96t-113 38q-103 0 -209 -88v115q112 43 218 43q109 0 173 -49q69 -52 69 -135q0 -114 -154 -173q47 -13 81 -37q93 -65 93 -180 q0 -112 -88.5 -184t-227.5 -72q-95 0 -170 33zM486 0l858 1365h66l-862 -1365h-62zM1153 242l451 622h28v-556h102v-61h-102v-247h-97v242h-382zM1259 308h276v381z" />
<glyph unicode="&#xbf;" horiz-adv-x="715" d="M68 253q0 81 34.5 148.5t147.5 204.5q133 161 174 283l37 30q-12 -75 -39 -137t-89 -159q-77 -120 -96 -164q-39 -90 -39 -158q0 -98 80 -164q63 -51 156 -51q107 0 226 76v-131q-122 -45 -234 -45q-144 0 -239 56q-119 70 -119 211zM326 1278q0 42 29.5 71.5t71.5 29.5 q41 0 70 -29t29 -71t-29.5 -71t-71.5 -29q-41 0 -70 29t-29 70z" />
<glyph unicode="&#xc0;" horiz-adv-x="1436" d="M14 0v44q94 0 139.5 40.5t91.5 163.5l439 1174h20l527 -1240q34 -79 75.5 -107.5t129.5 -30.5v-44q-129 7 -229 7q-166 0 -272 -7v44q87 2 118 15t31 47q0 39 -28 105l-145 343h-478l-109 -339q-20 -64 -20 -100q0 -40 26.5 -55t99.5 -16v-44q-120 7 -209 7 q-109 0 -207 -7zM454 610h434l-237 570zM478 1692h161q19 -66 58.5 -116.5t97.5 -84.5l-5 -18q-95 8 -178.5 66.5t-133.5 152.5z" />
<glyph unicode="&#xc1;" horiz-adv-x="1436" d="M14 0v44q94 0 139.5 40.5t91.5 163.5l439 1174h20l527 -1240q34 -79 75.5 -107.5t129.5 -30.5v-44q-129 7 -229 7q-166 0 -272 -7v44q87 2 118 15t31 47q0 39 -28 105l-145 343h-478l-109 -339q-20 -64 -20 -100q0 -40 26.5 -55t99.5 -16v-44q-120 7 -209 7 q-109 0 -207 -7zM454 610h434l-237 570zM619 1491q58 34 97.5 84.5t58.5 116.5h161q-50 -94 -133.5 -152.5t-178.5 -66.5z" />
<glyph unicode="&#xc2;" horiz-adv-x="1436" d="M14 0v44q94 0 139.5 40.5t91.5 163.5l439 1174h20l527 -1240q34 -79 75.5 -107.5t129.5 -30.5v-44q-129 7 -229 7q-166 0 -272 -7v44q87 2 118 15t31 47q0 39 -28 105l-145 343h-478l-109 -339q-20 -64 -20 -100q0 -40 26.5 -55t99.5 -16v-44q-120 7 -209 7 q-109 0 -207 -7zM454 610h434l-237 570zM472 1498q134 92 154 201h145q20 -110 153 -201l-6 -14q-126 14 -220 112q-92 -98 -220 -112z" />
<glyph unicode="&#xc3;" horiz-adv-x="1436" d="M14 0v44q94 0 139.5 40.5t91.5 163.5l439 1174h20l527 -1240q34 -79 75.5 -107.5t129.5 -30.5v-44q-129 7 -229 7q-166 0 -272 -7v44q87 2 118 15t31 47q0 39 -28 105l-145 343h-478l-109 -339q-20 -64 -20 -100q0 -40 26.5 -55t99.5 -16v-44q-120 7 -209 7 q-109 0 -207 -7zM413 1517q80 162 179 162q40 0 148 -45q100 -42 149 -42q33 0 52.5 14.5t52.5 65.5l29 -14q-49 -90 -87 -126t-83 -36q-46 0 -160 43q-117 44 -148 44q-58 0 -103 -80zM454 610h434l-237 570z" />
<glyph unicode="&#xc4;" horiz-adv-x="1436" d="M14 0v44q94 0 139.5 40.5t91.5 163.5l439 1174h20l527 -1240q34 -79 75.5 -107.5t129.5 -30.5v-44q-129 7 -229 7q-166 0 -272 -7v44q87 2 118 15t31 47q0 39 -28 105l-145 343h-478l-109 -339q-20 -64 -20 -100q0 -40 26.5 -55t99.5 -16v-44q-120 7 -209 7 q-109 0 -207 -7zM454 610h434l-237 570zM459 1587q0 37 25.5 61.5t62.5 24.5q34 0 59 -25.5t25 -60.5t-25 -60.5t-60 -25.5q-36 0 -61.5 25.5t-25.5 60.5zM767 1587q0 37 25.5 61.5t62.5 24.5q34 0 59 -25.5t25 -60.5t-25 -60.5t-60 -25.5q-36 0 -61.5 25.5t-25.5 60.5z" />
<glyph unicode="&#xc5;" horiz-adv-x="1436" d="M14 0v44q94 0 139.5 40.5t91.5 163.5l437 1168q-71 7 -115 54.5t-44 115.5q0 74 50.5 125t122.5 51q66 0 115 -41q61 -52 61 -132q0 -71 -46 -119.5t-120 -54.5l525 -1233q34 -79 75.5 -107.5t129.5 -30.5v-44q-129 7 -229 7q-166 0 -272 -7v44q87 2 118 15t31 47 q0 39 -28 105l-145 343h-478l-109 -339q-20 -64 -20 -100q0 -40 26.5 -55t99.5 -16v-44q-120 7 -209 7q-109 0 -207 -7zM454 610h434l-237 570zM589 1600q0 -62 33.5 -103.5t83.5 -41.5q45 0 73 33t28 86q0 64 -33.5 106.5t-84.5 42.5q-43 0 -71.5 -34.5t-28.5 -88.5z" />
<glyph unicode="&#xc6;" horiz-adv-x="1879" d="M14 0v44q94 5 137.5 39.5t112.5 157.5l536 959q27 48 27 76q0 30 -42 36q-17 2 -79 7l-28 2v44h1006l20 -307l-40 -6q-13 145 -73 196q-78 64 -302 63h-206v-569h129q117 0 177 8t88 27q21 15 28.5 37.5t12.5 87.5h40q-7 -82 -7 -178q0 -91 7 -176h-37q-8 93 -54 121 q-24 13 -58.5 16t-192.5 4h-133v-445q0 -138 35.5 -167.5t199.5 -29.5q150 0 238.5 18.5t134.5 59.5q34 31 51 74t28 126h35l-35 -325h-993v44l17 2q55 6 79.5 21t38.5 52q18 41 19 174v396h-348l-234 -439q-42 -78 -42 -130q0 -40 34.5 -56t128.5 -20v-44q-117 7 -233 7 q-126 0 -223 -7zM612 742h319v569z" />
<glyph unicode="&#xc7;" horiz-adv-x="1429" d="M68 649q0 255 145 462q196 279 597 279q203 0 453 -63l8 -238l-20 -6q-55 91 -119 141q-138 110 -346 110q-165 0 -295 -71q-131 -71 -197 -210q-70 -148 -70 -337q0 -308 180 -500q169 -180 403 -180q311 0 536 337l17 -131q-257 -267 -598 -267q-259 0 -445 143 q-113 87 -177 216q-72 142 -72 315zM653 -301q75 42 75 143q0 35 -23 76q35 -12 72 -12t71 12q-2 -90 -51 -149.5t-140 -81.5z" />
<glyph unicode="&#xc8;" horiz-adv-x="1186" d="M78 0v44q96 5 127 41q22 25 30.5 72t8.5 136v779q0 89 -8.5 136t-30.5 72q-31 36 -127 41v44h914l19 -305h-40q-9 142 -90 197.5t-279 55.5h-209v-566h100q258 0 294 34q36 27 41 125h39q-7 -77 -7 -166q0 -113 7 -186h-39q-9 100 -59 120.5t-287 20.5h-89l7 -458 q1 -84 10 -117t35 -47q36 -20 194 -20q139 0 224 18t128 56q62 53 84 204h36l-36 -331h-997zM380 1692h161q19 -66 58.5 -116.5t97.5 -84.5l-5 -18q-95 8 -178.5 66.5t-133.5 152.5z" />
<glyph unicode="&#xc9;" horiz-adv-x="1186" d="M78 0v44q96 5 127 41q22 25 30.5 72t8.5 136v779q0 89 -8.5 136t-30.5 72q-31 36 -127 41v44h914l19 -305h-40q-9 142 -90 197.5t-279 55.5h-209v-566h100q258 0 294 34q36 27 41 125h39q-7 -77 -7 -166q0 -113 7 -186h-39q-9 100 -59 120.5t-287 20.5h-89l7 -458 q1 -84 10 -117t35 -47q36 -20 194 -20q139 0 224 18t128 56q62 53 84 204h36l-36 -331h-997zM494 1491q58 34 97.5 84.5t58.5 116.5h161q-50 -94 -133.5 -152.5t-178.5 -66.5z" />
<glyph unicode="&#xca;" horiz-adv-x="1186" d="M78 0v44q96 5 127 41q22 25 30.5 72t8.5 136v779q0 89 -8.5 136t-30.5 72q-31 36 -127 41v44h914l19 -305h-40q-9 142 -90 197.5t-279 55.5h-209v-566h100q258 0 294 34q36 27 41 125h39q-7 -77 -7 -166q0 -113 7 -186h-39q-9 100 -59 120.5t-287 20.5h-89l7 -458 q1 -84 10 -117t35 -47q36 -20 194 -20q139 0 224 18t128 56q62 53 84 204h36l-36 -331h-997zM367 1498q134 92 154 201h145q20 -110 153 -201l-6 -14q-126 14 -220 112q-92 -98 -220 -112z" />
<glyph unicode="&#xcb;" horiz-adv-x="1186" d="M78 0v44q96 5 127 41q22 25 30.5 72t8.5 136v779q0 89 -8.5 136t-30.5 72q-31 36 -127 41v44h914l19 -305h-40q-9 142 -90 197.5t-279 55.5h-209v-566h100q258 0 294 34q36 27 41 125h39q-7 -77 -7 -166q0 -113 7 -186h-39q-9 100 -59 120.5t-287 20.5h-89l7 -458 q1 -84 10 -117t35 -47q36 -20 194 -20q139 0 224 18t128 56q62 53 84 204h36l-36 -331h-997zM354 1587q0 37 25.5 61.5t62.5 24.5q34 0 59 -25.5t25 -60.5t-25 -60.5t-60 -25.5q-36 0 -61.5 25.5t-25.5 60.5zM662 1587q0 37 25.5 61.5t62.5 24.5q34 0 59 -25.5t25 -60.5 t-25 -60.5t-60 -25.5q-36 0 -61.5 25.5t-25.5 60.5z" />
<glyph unicode="&#xcc;" horiz-adv-x="615" d="M67 0v44q95 5 126 41q21 25 30 72t9 136v779q0 89 -9 136t-30 72q-31 36 -126 41v44q103 -7 233 -7q164 0 250 7v-44q-97 -5 -128 -41q-22 -25 -30.5 -72t-8.5 -136v-779q0 -90 8.5 -136.5t29.5 -71.5q32 -36 129 -41v-44q-102 7 -232 7t-251 -7zM94 1692h161 q19 -66 58.5 -116.5t97.5 -84.5l-5 -18q-95 8 -178.5 66.5t-133.5 152.5z" />
<glyph unicode="&#xcd;" horiz-adv-x="615" d="M67 0v44q95 5 126 41q21 25 30 72t9 136v779q0 89 -9 136t-30 72q-31 36 -126 41v44q103 -7 233 -7q164 0 250 7v-44q-97 -5 -128 -41q-22 -25 -30.5 -72t-8.5 -136v-779q0 -90 8.5 -136.5t29.5 -71.5q32 -36 129 -41v-44q-102 7 -232 7t-251 -7zM208 1491 q58 34 97.5 84.5t58.5 116.5h161q-50 -94 -133.5 -152.5t-178.5 -66.5z" />
<glyph unicode="&#xce;" horiz-adv-x="615" d="M67 0v44q95 5 126 41q21 25 30 72t9 136v779q0 89 -9 136t-30 72q-31 36 -126 41v44q103 -7 233 -7q164 0 250 7v-44q-97 -5 -128 -41q-22 -25 -30.5 -72t-8.5 -136v-779q0 -90 8.5 -136.5t29.5 -71.5q32 -36 129 -41v-44q-102 7 -232 7t-251 -7zM81 1498q134 92 154 201 h145q20 -110 153 -201l-6 -14q-126 14 -220 112q-92 -98 -220 -112z" />
<glyph unicode="&#xcf;" horiz-adv-x="615" d="M67 0v44q95 5 126 41q21 25 30 72t9 136v779q0 89 -9 136t-30 72q-31 36 -126 41v44q103 -7 233 -7q164 0 250 7v-44q-97 -5 -128 -41q-22 -25 -30.5 -72t-8.5 -136v-779q0 -90 8.5 -136.5t29.5 -71.5q32 -36 129 -41v-44q-102 7 -232 7t-251 -7zM68 1587q0 36 25.5 61 t62.5 25q34 0 59 -25.5t25 -60.5t-25 -60.5t-60 -25.5q-36 0 -61.5 25.5t-25.5 60.5zM376 1587q0 37 25.5 61.5t62.5 24.5q34 0 59 -25.5t25 -60.5t-25 -60.5t-60 -25.5q-36 0 -61.5 25.5t-25.5 60.5z" />
<glyph unicode="&#xd0;" horiz-adv-x="1520" d="M58 0v44q102 3 135 41q21 25 30 72t9 136v389h-146v71h146v319q0 155 -31 199.5t-143 49.5v44q165 -7 248 -7q53 0 270 10q93 4 147 4q300 0 482 -144q119 -94 187 -250q60 -138 60 -281q0 -217 -128 -408q-102 -152 -263.5 -224.5t-399.5 -72.5q-72 0 -209 9 q-82 6 -130 6q-116 0 -264 -7zM380 269q0 -95 15.5 -137t59.5 -60q63 -27 201 -27q175 0 319 63q150 65 230 191q93 145 93 340q0 301 -207 502q-187 182 -460 182q-135 0 -251 -27v-543h275v-71h-275v-413z" />
<glyph unicode="&#xd1;" horiz-adv-x="1563" d="M37 1321v44h301l948 -1154l-16 861q-3 148 -34 195t-131 54v44q91 -7 202 -7q101 0 204 7v-44q-93 -6 -123 -54t-34 -195l-29 -1095h-42l-993 1205l11 -889q1 -89 10.5 -136t30.5 -72q31 -35 125 -41v-44q-91 7 -200 7q-122 0 -207 -7v44q95 5 126 41q22 25 30.5 72 t8.5 136v779q0 158 -33 202t-155 47zM477 1517q80 162 179 162q40 0 148 -45q100 -42 149 -42q33 0 52.5 14.5t52.5 65.5l29 -14q-49 -90 -87 -126t-83 -36q-46 0 -160 43q-117 44 -148 44q-58 0 -103 -80z" />
<glyph unicode="&#xd2;" horiz-adv-x="1561" d="M68 668q0 230 129 420q107 156 280 237q138 65 305 65q258 0 460 -169q110 -92 175 -219q76 -150 76 -317q0 -200 -108 -377q-111 -180 -294 -268q-137 -65 -307 -65q-277 0 -481 179q-235 205 -235 514zM234 739q0 -211 92 -388q84 -162 233 -246q123 -69 258 -69 q136 0 257 70q257 148 257 508q0 310 -168 516q-166 204 -422 204q-137 0 -258 -78q-131 -84 -194 -232q-55 -127 -55 -285zM567 1692h161q19 -66 58.5 -116.5t97.5 -84.5l-5 -18q-95 8 -178.5 66.5t-133.5 152.5z" />
<glyph unicode="&#xd3;" horiz-adv-x="1561" d="M68 668q0 230 129 420q107 156 280 237q138 65 305 65q258 0 460 -169q110 -92 175 -219q76 -150 76 -317q0 -200 -108 -377q-111 -180 -294 -268q-137 -65 -307 -65q-277 0 -481 179q-235 205 -235 514zM234 739q0 -211 92 -388q84 -162 233 -246q123 -69 258 -69 q136 0 257 70q257 148 257 508q0 310 -168 516q-166 204 -422 204q-137 0 -258 -78q-131 -84 -194 -232q-55 -127 -55 -285zM681 1491q58 34 97.5 84.5t58.5 116.5h161q-50 -94 -133.5 -152.5t-178.5 -66.5z" />
<glyph unicode="&#xd4;" horiz-adv-x="1561" d="M68 668q0 230 129 420q107 156 280 237q138 65 305 65q258 0 460 -169q110 -92 175 -219q76 -150 76 -317q0 -200 -108 -377q-111 -180 -294 -268q-137 -65 -307 -65q-277 0 -481 179q-235 205 -235 514zM234 739q0 -211 92 -388q84 -162 233 -246q123 -69 258 -69 q136 0 257 70q257 148 257 508q0 310 -168 516q-166 204 -422 204q-137 0 -258 -78q-131 -84 -194 -232q-55 -127 -55 -285zM554 1498q134 92 154 201h145q20 -110 153 -201l-6 -14q-126 14 -220 112q-92 -98 -220 -112z" />
<glyph unicode="&#xd5;" horiz-adv-x="1561" d="M68 668q0 230 129 420q107 156 280 237q138 65 305 65q258 0 460 -169q110 -92 175 -219q76 -150 76 -317q0 -200 -108 -377q-111 -180 -294 -268q-137 -65 -307 -65q-277 0 -481 179q-235 205 -235 514zM234 739q0 -211 92 -388q84 -162 233 -246q123 -69 258 -69 q136 0 257 70q257 148 257 508q0 310 -168 516q-166 204 -422 204q-137 0 -258 -78q-131 -84 -194 -232q-55 -127 -55 -285zM475 1517q80 162 179 162q40 0 148 -45q100 -42 149 -42q33 0 52.5 14.5t52.5 65.5l29 -14q-49 -90 -87 -126t-83 -36q-46 0 -160 43 q-117 44 -148 44q-58 0 -103 -80z" />
<glyph unicode="&#xd6;" horiz-adv-x="1561" d="M68 668q0 230 129 420q107 156 280 237q138 65 305 65q258 0 460 -169q110 -92 175 -219q76 -150 76 -317q0 -200 -108 -377q-111 -180 -294 -268q-137 -65 -307 -65q-277 0 -481 179q-235 205 -235 514zM234 739q0 -211 92 -388q84 -162 233 -246q123 -69 258 -69 q136 0 257 70q257 148 257 508q0 310 -168 516q-166 204 -422 204q-137 0 -258 -78q-131 -84 -194 -232q-55 -127 -55 -285zM541 1587q0 37 25.5 61.5t62.5 24.5q34 0 59 -25.5t25 -60.5t-25 -60.5t-60 -25.5q-36 0 -61.5 25.5t-25.5 60.5zM849 1587q0 37 25.5 61.5 t62.5 24.5q34 0 59 -25.5t25 -60.5t-25 -60.5t-60 -25.5q-36 0 -61.5 25.5t-25.5 60.5z" />
<glyph unicode="&#xd7;" d="M206 382l300 301l-300 300l46 46l301 -300l300 300l46 -46l-300 -300l300 -301l-46 -46l-300 300l-301 -300z" />
<glyph unicode="&#xd8;" horiz-adv-x="1561" d="M68 669q0 229 130 419q108 158 279 237q138 65 298 65q220 0 416 -130l143 185l44 -33l-143 -186q63 -52 105 -105q153 -192 153 -436q0 -201 -108 -377q-112 -180 -294 -268q-137 -65 -306 -65q-235 0 -418 129l-154 -200l-42 32l154 200q-257 212 -257 533zM234 740 q0 -145 43.5 -275.5t124.5 -228.5l722 936q-165 162 -377 162t-357 -155q-156 -167 -156 -439zM439 196q167 -160 379 -160q135 0 256 70q257 149 257 509q0 304 -170 516z" />
<glyph unicode="&#xd9;" horiz-adv-x="1522" d="M61 1321l1 44q107 -7 228 -7q118 0 233 7v-44q-57 -4 -81.5 -12.5t-41.5 -28.5q-22 -25 -31.5 -71.5t-10.5 -136.5l-8 -545q-3 -155 37 -252q42 -104 142 -167q111 -71 249 -71q169 0 296 103q131 106 154 306q10 84 10 253q0 463 -35 558q-11 29 -41 43t-97 21v44 q106 -7 199 -7q85 0 201 7v-44q-100 -11 -122 -45t-26 -182l-10 -445q-3 -169 -25.5 -276t-69.5 -175q-71 -105 -188 -164q-118 -59 -262 -59q-228 0 -385 134q-170 146 -167 430l5 533q0 145 -22 186q-16 33 -41 44.5t-91 18.5zM575 1692h161q19 -66 58.5 -116.5 t97.5 -84.5l-5 -18q-95 8 -178.5 66.5t-133.5 152.5z" />
<glyph unicode="&#xda;" horiz-adv-x="1522" d="M61 1321l1 44q107 -7 228 -7q118 0 233 7v-44q-57 -4 -81.5 -12.5t-41.5 -28.5q-22 -25 -31.5 -71.5t-10.5 -136.5l-8 -545q-3 -155 37 -252q42 -104 142 -167q111 -71 249 -71q169 0 296 103q131 106 154 306q10 84 10 253q0 463 -35 558q-11 29 -41 43t-97 21v44 q106 -7 199 -7q85 0 201 7v-44q-100 -11 -122 -45t-26 -182l-10 -445q-3 -169 -25.5 -276t-69.5 -175q-71 -105 -188 -164q-118 -59 -262 -59q-228 0 -385 134q-170 146 -167 430l5 533q0 145 -22 186q-16 33 -41 44.5t-91 18.5zM689 1491q58 34 97.5 84.5t58.5 116.5h161 q-50 -94 -133.5 -152.5t-178.5 -66.5z" />
<glyph unicode="&#xdb;" horiz-adv-x="1522" d="M61 1321l1 44q107 -7 228 -7q118 0 233 7v-44q-57 -4 -81.5 -12.5t-41.5 -28.5q-22 -25 -31.5 -71.5t-10.5 -136.5l-8 -545q-3 -155 37 -252q42 -104 142 -167q111 -71 249 -71q169 0 296 103q131 106 154 306q10 84 10 253q0 463 -35 558q-11 29 -41 43t-97 21v44 q106 -7 199 -7q85 0 201 7v-44q-100 -11 -122 -45t-26 -182l-10 -445q-3 -169 -25.5 -276t-69.5 -175q-71 -105 -188 -164q-118 -59 -262 -59q-228 0 -385 134q-170 146 -167 430l5 533q0 145 -22 186q-16 33 -41 44.5t-91 18.5zM562 1498q134 92 154 201h145 q20 -110 153 -201l-6 -14q-126 14 -220 112q-92 -98 -220 -112z" />
<glyph unicode="&#xdc;" horiz-adv-x="1522" d="M61 1321l1 44q107 -7 228 -7q118 0 233 7v-44q-57 -4 -81.5 -12.5t-41.5 -28.5q-22 -25 -31.5 -71.5t-10.5 -136.5l-8 -545q-3 -155 37 -252q42 -104 142 -167q111 -71 249 -71q169 0 296 103q131 106 154 306q10 84 10 253q0 463 -35 558q-11 29 -41 43t-97 21v44 q106 -7 199 -7q85 0 201 7v-44q-100 -11 -122 -45t-26 -182l-10 -445q-3 -169 -25.5 -276t-69.5 -175q-71 -105 -188 -164q-118 -59 -262 -59q-228 0 -385 134q-170 146 -167 430l5 533q0 145 -22 186q-16 33 -41 44.5t-91 18.5zM549 1587q0 37 25.5 61.5t62.5 24.5 q34 0 59 -25.5t25 -60.5t-25 -60.5t-60 -25.5q-36 0 -61.5 25.5t-25.5 60.5zM857 1587q0 37 25.5 61.5t62.5 24.5q34 0 59 -25.5t25 -60.5t-25 -60.5t-60 -25.5q-36 0 -61.5 25.5t-25.5 60.5z" />
<glyph unicode="&#xdd;" horiz-adv-x="1238" d="M-27 1321v44q105 -7 228 -7q104 0 234 7v-44q-68 -3 -90.5 -16t-22.5 -49q0 -40 33 -98l312 -560l308 601q23 45 23 74q0 25 -21 34.5t-90 13.5v44q100 -7 177 -7q66 0 174 7v-44q-82 -4 -116.5 -26.5t-73.5 -94.5l-344 -653v-254q0 -89 9 -136t30 -72q17 -20 41.5 -28.5 t81.5 -12.5v-44q-121 7 -235 7q-138 0 -243 -7v44q98 5 129 41q22 25 30.5 72t8.5 136v212l-397 705q-38 68 -70.5 87t-115.5 24zM547 1491q58 34 97.5 84.5t58.5 116.5h161q-50 -94 -133.5 -152.5t-178.5 -66.5z" />
<glyph unicode="&#xde;" horiz-adv-x="1066" d="M67 0v44q95 5 126 41q21 25 30 72t9 136v779q0 89 -9 136t-30 72q-31 36 -126 41v44q103 -7 233 -7q164 0 250 7v-44q-97 -5 -128 -41q-22 -25 -30.5 -72t-8.5 -136v-34l44 2q95 4 144 4q174 0 280 -59q167 -94 167 -301q0 -180 -137 -276q-117 -82 -331 -82 q-85 0 -167 13v-46q0 -90 8.5 -136.5t29.5 -71.5q32 -36 129 -41v-44q-102 7 -232 7t-251 -7zM383 424q92 -50 181 -50q148 0 221 72q77 76 77 206q0 79 -31 152t-84 118q-89 76 -247 76q-59 0 -117 -13v-561z" />
<glyph unicode="&#xdf;" horiz-adv-x="1083" d="M49 778v69h167v177q0 245 94 355q89 105 218 105q119 0 213 -77q97 -78 97 -187q0 -70 -33.5 -127.5t-131.5 -153.5q-72 -71 -72 -111q0 -31 41 -61q10 -7 124 -74q125 -73 184 -149q72 -91 72 -201q0 -158 -129 -269q-106 -92 -239 -92q-104 0 -199 47v173h29 q7 -56 32 -89q56 -75 155 -75q97 0 159 87q53 75 53 163q0 78 -39.5 138t-145.5 144q-120 95 -152.5 133.5t-32.5 85.5q0 38 18 71.5t75 99.5q130 153 130 256q0 97 -74 170q-56 55 -137 55q-93 0 -137 -81.5t-44 -254.5v-1105q-25 2 -81 6q-31 2 -59 2q-50 0 -137 -8v44 q84 5 111 17q26 12 32 38t6 121v558h-167z" />
<glyph unicode="&#xe0;" horiz-adv-x="853" d="M61 194q0 59 42.5 102.5t139.5 83.5q116 48 291 112v92q0 106 -46 160q-50 58 -129 58q-61 0 -103 -40q-38 -37 -38 -83q0 -29 23 -71l-104 -55q-32 48 -32 84q0 85 135 161q112 63 183 63q64 0 119 -30t82 -79q38 -68 38 -246v-276q0 -78 15 -108.5t53 -30.5q28 0 64 20 v-41l-216 -95q-29 46 -40 129q-142 -122 -273 -122q-89 0 -146 66q-58 67 -58 146zM195 223q0 -74 58 -125q44 -38 94 -38q79 0 187 90v297l-169 -68q-103 -41 -136.5 -72t-33.5 -84zM213 1283h161q19 -66 58.5 -116.5t97.5 -84.5l-5 -18q-95 8 -178.5 66.5t-133.5 152.5z " />
<glyph unicode="&#xe1;" horiz-adv-x="853" d="M61 194q0 59 42.5 102.5t139.5 83.5q116 48 291 112v92q0 106 -46 160q-50 58 -129 58q-61 0 -103 -40q-38 -37 -38 -83q0 -29 23 -71l-104 -55q-32 48 -32 84q0 85 135 161q112 63 183 63q64 0 119 -30t82 -79q38 -68 38 -246v-276q0 -78 15 -108.5t53 -30.5q28 0 64 20 v-41l-216 -95q-29 46 -40 129q-142 -122 -273 -122q-89 0 -146 66q-58 67 -58 146zM195 223q0 -74 58 -125q44 -38 94 -38q79 0 187 90v297l-169 -68q-103 -41 -136.5 -72t-33.5 -84zM327 1082q58 34 97.5 84.5t58.5 116.5h161q-50 -94 -133.5 -152.5t-178.5 -66.5z" />
<glyph unicode="&#xe2;" horiz-adv-x="853" d="M61 194q0 59 42.5 102.5t139.5 83.5q116 48 291 112v92q0 106 -46 160q-50 58 -129 58q-61 0 -103 -40q-38 -37 -38 -83q0 -29 23 -71l-104 -55q-32 48 -32 84q0 85 135 161q112 63 183 63q64 0 119 -30t82 -79q38 -68 38 -246v-276q0 -78 15 -108.5t53 -30.5q28 0 64 20 v-41l-216 -95q-29 46 -40 129q-142 -122 -273 -122q-89 0 -146 66q-58 67 -58 146zM195 223q0 -74 58 -125q44 -38 94 -38q79 0 187 90v297l-169 -68q-103 -41 -136.5 -72t-33.5 -84zM200 1089q134 92 154 201h145q20 -110 153 -201l-6 -14q-126 14 -220 112 q-92 -98 -220 -112z" />
<glyph unicode="&#xe3;" horiz-adv-x="853" d="M61 194q0 59 42.5 102.5t139.5 83.5q116 48 291 112v92q0 106 -46 160q-50 58 -129 58q-61 0 -103 -40q-38 -37 -38 -83q0 -29 23 -71l-104 -55q-32 48 -32 84q0 85 135 161q112 63 183 63q64 0 119 -30t82 -79q38 -68 38 -246v-276q0 -78 15 -108.5t53 -30.5q28 0 64 20 v-41l-216 -95q-29 46 -40 129q-142 -122 -273 -122q-89 0 -146 66q-58 67 -58 146zM121 1108q80 162 179 162q39 0 148 -46q100 -42 149 -42q33 0 52.5 14.5t52.5 65.5l29 -14q-50 -90 -87.5 -126t-82.5 -36q-46 0 -160 44q-117 44 -148 44q-58 0 -103 -81zM195 223 q0 -74 58 -125q44 -38 94 -38q79 0 187 90v297l-169 -68q-103 -41 -136.5 -72t-33.5 -84z" />
<glyph unicode="&#xe4;" horiz-adv-x="853" d="M61 194q0 59 42.5 102.5t139.5 83.5q116 48 291 112v92q0 106 -46 160q-50 58 -129 58q-61 0 -103 -40q-38 -37 -38 -83q0 -29 23 -71l-104 -55q-32 48 -32 84q0 85 135 161q112 63 183 63q64 0 119 -30t82 -79q38 -68 38 -246v-276q0 -78 15 -108.5t53 -30.5q28 0 64 20 v-41l-216 -95q-29 46 -40 129q-142 -122 -273 -122q-89 0 -146 66q-58 67 -58 146zM187 1177q0 37 25.5 61.5t62.5 24.5q34 0 59 -25.5t25 -60.5t-25 -60.5t-60 -25.5q-36 0 -61.5 25.5t-25.5 60.5zM195 223q0 -74 58 -125q44 -38 94 -38q79 0 187 90v297l-169 -68 q-103 -41 -136.5 -72t-33.5 -84zM495 1177q0 37 25.5 61.5t62.5 24.5q34 0 59 -25.5t25 -60.5t-25 -60.5t-60 -25.5q-36 0 -61.5 25.5t-25.5 60.5z" />
<glyph unicode="&#xe5;" horiz-adv-x="853" d="M61 194q0 59 42.5 102.5t139.5 83.5q116 48 291 112v92q0 106 -46 160q-50 58 -129 58q-61 0 -103 -40q-38 -37 -38 -83q0 -29 23 -71l-104 -55q-32 48 -32 84q0 85 135 161q112 63 183 63q64 0 119 -30t82 -79q38 -68 38 -246v-276q0 -78 15 -108.5t53 -30.5q28 0 64 20 v-41l-216 -95q-29 46 -40 129q-142 -122 -273 -122q-89 0 -146 66q-58 67 -58 146zM195 223q0 -74 58 -125q44 -38 94 -38q79 0 187 90v297l-169 -68q-103 -41 -136.5 -72t-33.5 -84zM252 1175q0 75 50.5 126t124.5 51q63 0 113 -41q61 -52 61 -132q0 -73 -50.5 -123.5 t-123.5 -50.5t-124 49.5t-51 120.5zM318 1190q0 -62 33.5 -103.5t83.5 -41.5q45 0 73 33t28 86q0 64 -33.5 106.5t-84.5 42.5q-43 0 -71.5 -34.5t-28.5 -88.5z" />
<glyph unicode="&#xe6;" horiz-adv-x="1342" d="M61 190q0 70 44 115t155 87l276 106q3 58 3 89q0 90 -32 148q-43 80 -124 80q-69 0 -119.5 -38t-50.5 -89q0 -31 22 -81l-108 -52q-27 54 -27 99q0 46 32.5 80.5t117.5 78.5q114 58 189 58q61 0 104 -25.5t108 -101.5q70 68 139.5 97.5t160.5 29.5q153 0 247 -91 q92 -89 92 -218q0 -14 -2 -43h-616v-31q0 -171 82 -295q48 -71 120.5 -110t157.5 -39q117 0 232 66v-42q-149 -93 -312 -93q-198 0 -337 175q-85 -62 -121 -85q-111 -71 -229 -71q-89 0 -148 59q-56 58 -56 137zM198 221q0 -63 45 -111.5t104 -48.5q93 0 248 118 q-58 109 -58 253q0 8 1 23l-204 -76q-71 -27 -103.5 -65t-32.5 -93zM675 569h473q-1 99 -51 168q-62 87 -182 87q-103 0 -167.5 -68.5t-72.5 -186.5z" />
<glyph unicode="&#xe7;" horiz-adv-x="847" d="M61 424q0 163 98 283q135 164 378 164q118 0 228 -44l20 -152l-24 -5q-105 152 -279 152q-119 0 -195 -64q-105 -89 -105 -256q0 -187 114 -325q49 -58 119 -90.5t148 -32.5q111 0 251 75l5 -31q-163 -123 -332 -123q-159 0 -279 109q-147 134 -147 340zM362 -301 q75 42 75 143q0 35 -23 76q35 -12 72 -12t71 12q-2 -90 -51 -149.5t-140 -81.5z" />
<glyph unicode="&#xe8;" horiz-adv-x="867" d="M61 433q0 200 128 327q112 111 279 111q119 0 205 -54q74 -47 105 -112t37 -187h-617q0 -169 53 -280q50 -102 136 -153q77 -45 164 -45q110 0 241 66v-39q-156 -92 -299 -92q-175 0 -296 117q-64 63 -100 152.5t-36 188.5zM203 568h470q-20 257 -229 257q-99 0 -165 -70 t-76 -187zM247 1283h161q19 -66 58.5 -116.5t97.5 -84.5l-5 -18q-95 8 -178.5 66.5t-133.5 152.5z" />
<glyph unicode="&#xe9;" horiz-adv-x="867" d="M61 433q0 200 128 327q112 111 279 111q119 0 205 -54q74 -47 105 -112t37 -187h-617q0 -169 53 -280q50 -102 136 -153q77 -45 164 -45q110 0 241 66v-39q-156 -92 -299 -92q-175 0 -296 117q-64 63 -100 152.5t-36 188.5zM203 568h470q-20 257 -229 257q-99 0 -165 -70 t-76 -187zM361 1082q58 34 97.5 84.5t58.5 116.5h161q-50 -94 -133.5 -152.5t-178.5 -66.5z" />
<glyph unicode="&#xea;" horiz-adv-x="867" d="M61 433q0 200 128 327q112 111 279 111q119 0 205 -54q74 -47 105 -112t37 -187h-617q0 -169 53 -280q50 -102 136 -153q77 -45 164 -45q110 0 241 66v-39q-156 -92 -299 -92q-175 0 -296 117q-64 63 -100 152.5t-36 188.5zM203 568h470q-20 257 -229 257q-99 0 -165 -70 t-76 -187zM234 1089q134 92 154 201h145q20 -110 153 -201l-6 -14q-126 14 -220 112q-92 -98 -220 -112z" />
<glyph unicode="&#xeb;" horiz-adv-x="867" d="M61 433q0 200 128 327q112 111 279 111q119 0 205 -54q74 -47 105 -112t37 -187h-617q0 -169 53 -280q50 -102 136 -153q77 -45 164 -45q110 0 241 66v-39q-156 -92 -299 -92q-175 0 -296 117q-64 63 -100 152.5t-36 188.5zM203 568h470q-20 257 -229 257q-99 0 -165 -70 t-76 -187zM221 1177q0 37 25.5 61.5t62.5 24.5q34 0 59 -25.5t25 -60.5t-25 -60.5t-60 -25.5q-36 0 -61.5 25.5t-25.5 60.5zM529 1177q0 37 25.5 61.5t62.5 24.5q34 0 59 -25.5t25 -60.5t-25 -60.5t-60 -25.5q-36 0 -61.5 25.5t-25.5 60.5z" />
<glyph unicode="&#xec;" horiz-adv-x="545" d="M53 766q24 11 104 43q56 24 185 92v-681q0 -94 6.5 -120t31.5 -39q26 -11 104 -17v-44q-121 8 -214 8q-57 0 -200 -8v44l23 1q87 6 104.5 31.5t17.5 143.5v384q0 86 -13 114q-16 35 -55 35q-34 0 -78 -24zM59 1283h161q19 -66 58.5 -116.5t97.5 -84.5l-5 -18 q-95 8 -178.5 66.5t-133.5 152.5z" />
<glyph unicode="&#xed;" horiz-adv-x="545" d="M53 766q24 11 104 43q56 24 185 92v-681q0 -94 6.5 -120t31.5 -39q26 -11 104 -17v-44q-121 8 -214 8q-57 0 -200 -8v44l23 1q87 6 104.5 31.5t17.5 143.5v384q0 86 -13 114q-16 35 -55 35q-34 0 -78 -24zM173 1082q58 34 97.5 84.5t58.5 116.5h161 q-50 -94 -133.5 -152.5t-178.5 -66.5z" />
<glyph unicode="&#xee;" horiz-adv-x="545" d="M46 1089q134 92 154 201h145q20 -110 153 -201l-6 -14q-126 14 -220 112q-92 -98 -220 -112zM53 766q24 11 104 43q56 24 185 92v-681q0 -94 6.5 -120t31.5 -39q26 -11 104 -17v-44q-121 8 -214 8q-57 0 -200 -8v44l23 1q87 6 104.5 31.5t17.5 143.5v384q0 86 -13 114 q-16 35 -55 35q-34 0 -78 -24z" />
<glyph unicode="&#xef;" horiz-adv-x="545" d="M53 766q24 11 104 43q56 24 185 92v-681q0 -94 6.5 -120t31.5 -39q26 -11 104 -17v-44q-121 8 -214 8q-57 0 -200 -8v44l23 1q87 6 104.5 31.5t17.5 143.5v384q0 86 -13 114q-16 35 -55 35q-34 0 -78 -24zM74 1177q0 37 25.5 61.5t62.5 24.5q34 0 59 -25.5t25 -60.5 t-25 -60.5t-60 -25.5q-36 0 -61.5 25.5t-25.5 60.5zM300 1177q0 37 25.5 61.5t62.5 24.5q34 0 59 -25.5t25 -60.5t-25 -60.5t-60 -25.5q-36 0 -61.5 25.5t-25.5 60.5z" />
<glyph unicode="&#xf0;" horiz-adv-x="993" d="M60 418q0 89 31 174t87 146q121 134 317 134q75 0 160 -29q-69 232 -166 432l-203 -117l-25 47l203 117q-51 89 -139 225l35 26q54 -65 161 -220l189 112l26 -48l-187 -108q156 -264 211 -375q173 -349 173 -530q0 -80 -36 -169.5t-91 -144.5q-116 -117 -301 -117 q-196 0 -323 131q-122 126 -122 314zM191 487q0 -211 115 -354q93 -115 227 -115q119 0 192 86q65 79 65 228q0 228 -113 376q-89 117 -226 117q-109 0 -183 -81q-77 -85 -77 -257z" />
<glyph unicode="&#xf1;" horiz-adv-x="1112" d="M53 747q21 10 99 43q44 19 118 57l70 35v-184q72 65 111 91q93 62 199 62q61 0 118 -25.5t90 -68.5q34 -45 48 -109t14 -178v-250q0 -95 6 -120.5t32 -38.5q26 -12 108 -17v-44q-128 8 -202 8q-70 0 -202 -8v44q11 1 45 4q55 6 71 37.5t16 134.5v329q0 108 -56 165 q-55 56 -148 56q-113 0 -250 -119v-431q0 -95 6 -121t31 -38q24 -10 87 -17v-44q-142 8 -201 8q-58 0 -182 -8v44q11 1 51 4q55 5 69 33.5t14 138.5v365q0 85 -13 113q-16 35 -55 35q-33 0 -78 -23zM250 1108q80 162 179 162q39 0 148 -46q100 -42 149 -42q33 0 52.5 14.5 t52.5 65.5l29 -14q-50 -90 -87.5 -126t-82.5 -36q-46 0 -160 44q-117 44 -148 44q-58 0 -103 -81z" />
<glyph unicode="&#xf2;" horiz-adv-x="993" d="M61 426q0 151 85 271q125 174 355 174q178 0 301 -125q129 -132 129 -328q0 -146 -77 -264q-58 -89 -154 -136q-89 -43 -195 -43q-171 0 -295 107q-149 128 -149 344zM193 487q0 -210 115 -352q92 -115 227 -115q119 0 193 86q66 78 66 227q0 226 -114 375 q-90 116 -227 116q-109 0 -183 -81q-77 -85 -77 -256zM283 1283h161q19 -66 58.5 -116.5t97.5 -84.5l-5 -18q-95 8 -178.5 66.5t-133.5 152.5z" />
<glyph unicode="&#xf3;" horiz-adv-x="993" d="M61 426q0 151 85 271q125 174 355 174q178 0 301 -125q129 -132 129 -328q0 -146 -77 -264q-58 -89 -154 -136q-89 -43 -195 -43q-171 0 -295 107q-149 128 -149 344zM193 487q0 -210 115 -352q92 -115 227 -115q119 0 193 86q66 78 66 227q0 226 -114 375 q-90 116 -227 116q-109 0 -183 -81q-77 -85 -77 -256zM397 1082q58 34 97.5 84.5t58.5 116.5h161q-50 -94 -133.5 -152.5t-178.5 -66.5z" />
<glyph unicode="&#xf4;" horiz-adv-x="993" d="M61 426q0 151 85 271q125 174 355 174q178 0 301 -125q129 -132 129 -328q0 -146 -77 -264q-58 -89 -154 -136q-89 -43 -195 -43q-171 0 -295 107q-149 128 -149 344zM193 487q0 -210 115 -352q92 -115 227 -115q119 0 193 86q66 78 66 227q0 226 -114 375 q-90 116 -227 116q-109 0 -183 -81q-77 -85 -77 -256zM270 1089q134 92 154 201h145q20 -110 153 -201l-6 -14q-126 14 -220 112q-92 -98 -220 -112z" />
<glyph unicode="&#xf5;" horiz-adv-x="993" d="M61 426q0 151 85 271q125 174 355 174q178 0 301 -125q129 -132 129 -328q0 -146 -77 -264q-58 -89 -154 -136q-89 -43 -195 -43q-171 0 -295 107q-149 128 -149 344zM191 1108q80 162 179 162q39 0 148 -46q100 -42 149 -42q33 0 52.5 14.5t52.5 65.5l29 -14 q-50 -90 -87.5 -126t-82.5 -36q-46 0 -160 44q-117 44 -148 44q-58 0 -103 -81zM193 487q0 -210 115 -352q92 -115 227 -115q119 0 193 86q66 78 66 227q0 226 -114 375q-90 116 -227 116q-109 0 -183 -81q-77 -85 -77 -256z" />
<glyph unicode="&#xf6;" horiz-adv-x="993" d="M61 426q0 151 85 271q125 174 355 174q178 0 301 -125q129 -132 129 -328q0 -146 -77 -264q-58 -89 -154 -136q-89 -43 -195 -43q-171 0 -295 107q-149 128 -149 344zM193 487q0 -210 115 -352q92 -115 227 -115q119 0 193 86q66 78 66 227q0 226 -114 375 q-90 116 -227 116q-109 0 -183 -81q-77 -85 -77 -256zM257 1177q0 37 25.5 61.5t62.5 24.5q34 0 59 -25.5t25 -60.5t-25 -60.5t-60 -25.5q-36 0 -61.5 25.5t-25.5 60.5zM565 1177q0 37 25.5 61.5t62.5 24.5q34 0 59 -25.5t25 -60.5t-25 -60.5t-60 -25.5q-36 0 -61.5 25.5 t-25.5 60.5z" />
<glyph unicode="&#xf7;" d="M116 649v66h874v-66h-874zM469 382q0 35 25.5 59.5t60.5 24.5q34 0 57.5 -25t23.5 -60q0 -34 -23.5 -58t-57.5 -24q-35 0 -60.5 24.5t-25.5 58.5zM469 984q0 35 25.5 59.5t60.5 24.5q34 0 57.5 -25t23.5 -60q0 -34 -23.5 -58t-57.5 -24q-36 0 -61 24.5t-25 58.5z" />
<glyph unicode="&#xf8;" horiz-adv-x="993" d="M61 423q0 155 85 274q124 174 346 174q152 0 272 -89l94 115l34 -30l-94 -115q133 -139 133 -338q0 -143 -77 -260q-57 -88 -154 -136q-86 -43 -194 -43q-153 0 -273 89l-96 -118l-35 28l96 118q-137 130 -137 331zM193 486q0 -168 80 -302l418 509q-96 132 -234 132 q-114 0 -187 -81q-77 -85 -77 -258zM300 145q98 -125 235 -125q119 0 193 86q66 78 66 227q0 182 -77 320z" />
<glyph unicode="&#xf9;" horiz-adv-x="1129" d="M29 728q155 64 287 135v-489q0 -147 39 -214q24 -42 73 -68t103 -26q119 0 268 121v388q0 86 -13 114q-16 35 -54 35q-32 0 -87 -30l-9 43q135 51 290 135v-666q0 -112 53 -112q36 0 75 23l16 -35q-101 -40 -238 -107q-25 62 -30 161q-86 -62 -118 -81q-120 -70 -235 -70 q-92 0 -163 59q-53 45 -74 118.5t-21 216.5v187q0 88 -14.5 118t-55.5 30q-28 0 -84 -29zM352 1283h161q19 -66 58.5 -116.5t97.5 -84.5l-5 -18q-95 8 -178.5 66.5t-133.5 152.5z" />
<glyph unicode="&#xfa;" horiz-adv-x="1129" d="M29 728q155 64 287 135v-489q0 -147 39 -214q24 -42 73 -68t103 -26q119 0 268 121v388q0 86 -13 114q-16 35 -54 35q-32 0 -87 -30l-9 43q135 51 290 135v-666q0 -112 53 -112q36 0 75 23l16 -35q-101 -40 -238 -107q-25 62 -30 161q-86 -62 -118 -81q-120 -70 -235 -70 q-92 0 -163 59q-53 45 -74 118.5t-21 216.5v187q0 88 -14.5 118t-55.5 30q-28 0 -84 -29zM465 1082q58 34 97.5 84.5t58.5 116.5h161q-50 -94 -133.5 -152.5t-178.5 -66.5z" />
<glyph unicode="&#xfb;" horiz-adv-x="1129" d="M29 728q155 64 287 135v-489q0 -147 39 -214q24 -42 73 -68t103 -26q119 0 268 121v388q0 86 -13 114q-16 35 -54 35q-32 0 -87 -30l-9 43q135 51 290 135v-666q0 -112 53 -112q36 0 75 23l16 -35q-101 -40 -238 -107q-25 62 -30 161q-86 -62 -118 -81q-120 -70 -235 -70 q-92 0 -163 59q-53 45 -74 118.5t-21 216.5v187q0 88 -14.5 118t-55.5 30q-28 0 -84 -29zM339 1089q134 92 154 201h145q20 -110 153 -201l-6 -14q-126 14 -220 112q-92 -98 -220 -112z" />
<glyph unicode="&#xfc;" horiz-adv-x="1129" d="M29 728q155 64 287 135v-489q0 -147 39 -214q24 -42 73 -68t103 -26q119 0 268 121v388q0 86 -13 114q-16 35 -54 35q-32 0 -87 -30l-9 43q135 51 290 135v-666q0 -112 53 -112q36 0 75 23l16 -35q-101 -40 -238 -107q-25 62 -30 161q-86 -62 -118 -81q-120 -70 -235 -70 q-92 0 -163 59q-53 45 -74 118.5t-21 216.5v187q0 88 -14.5 118t-55.5 30q-28 0 -84 -29zM326 1177q0 37 25.5 61.5t62.5 24.5q34 0 59 -25.5t25 -60.5t-25 -60.5t-60 -25.5q-36 0 -61.5 25.5t-25.5 60.5zM633 1177q0 37 25.5 61.5t62.5 24.5q34 0 59 -25.5t25 -60.5 t-25 -60.5t-60 -25.5q-36 0 -61.5 25.5t-25.5 60.5z" />
<glyph unicode="&#xfd;" horiz-adv-x="934" d="M0 802v44l32 -2q100 -6 149 -6q68 0 184 8v-44q-92 -5 -92 -48q0 -34 21 -84l227 -536l169 489q25 71 25 107q0 67 -104 72v44q114 -8 157 -8q42 0 166 8v-44q-77 -3 -108.5 -33.5t-72.5 -139.5l-292 -784q-52 -142 -132 -215t-183 -73q-39 0 -74 10v161q83 -63 146 -63 q67 0 118.5 62.5t120.5 226.5l-310 738q-26 61 -56 84t-91 26zM367 1082q58 34 97.5 84.5t58.5 116.5h161q-50 -94 -133.5 -152.5t-178.5 -66.5z" />
<glyph unicode="&#xfe;" horiz-adv-x="1071" d="M40 1246l30 12q123 49 261 123v-666q101 78 180 111.5t159 33.5q162 0 252 -120q87 -115 87 -280q0 -204 -132 -340q-126 -129 -322 -129q-106 0 -224 44v-255v-75q0 -43 14.5 -64t48.5 -29q16 -4 85 -8v-44q-145 9 -211 9q-80 0 -216 -9v44q85 5 112 17q26 13 32 38.5 t6 120.5v1304q0 85 -13 113q-16 35 -55 35q-33 0 -78 -23zM331 141q114 -104 249 -104q130 0 216 86q90 89 90 266q0 195 -101 305q-77 83 -194 83q-139 0 -260 -117v-519z" />
<glyph unicode="&#xff;" horiz-adv-x="934" d="M0 802v44l32 -2q100 -6 149 -6q68 0 184 8v-44q-92 -5 -92 -48q0 -34 21 -84l227 -536l169 489q25 71 25 107q0 67 -104 72v44q114 -8 157 -8q42 0 166 8v-44q-77 -3 -108.5 -33.5t-72.5 -139.5l-292 -784q-52 -142 -132 -215t-183 -73q-39 0 -74 10v161q83 -63 146 -63 q67 0 118.5 62.5t120.5 226.5l-310 738q-26 61 -56 84t-91 26zM241 1177q0 37 25.5 61.5t62.5 24.5q34 0 59 -25.5t25 -60.5t-25 -60.5t-60 -25.5q-36 0 -61.5 25.5t-25.5 60.5zM549 1177q0 37 25.5 61.5t62.5 24.5q34 0 59 -25.5t25 -60.5t-25 -60.5t-60 -25.5 q-36 0 -61.5 25.5t-25.5 60.5z" />
<glyph unicode="&#x152;" horiz-adv-x="2050" d="M68 677q0 254 158 450q108 134 248.5 198.5t323.5 64.5q120 0 282 -25h773l23 -306l-40 -6q-9 139 -86 196.5t-253 57.5h-240v-563h104q144 0 197 5.5t85 23.5q24 14 34.5 40.5t14.5 84.5h38q-7 -95 -7 -181q0 -72 7 -167h-40q-5 90 -44 115t-175 25h-214v-445 q0 -100 15 -139t56 -48q38 -8 206 -8q131 0 204 17t122 59q38 33 55 77t23 124h37l-34 -327h-861q-186 -25 -305 -25q-272 0 -471 176q-91 80 -148 183q-88 158 -88 343zM234 740q0 -206 87 -383q83 -169 243 -257q127 -69 257 -69q73 0 142.5 19t98.5 47q47 46 47 159v772 q0 113 -8.5 157.5t-34.5 72.5q-31 33 -111 53.5t-175 20.5q-208 0 -350 -121q-196 -166 -196 -471z" />
<glyph unicode="&#x153;" horiz-adv-x="1591" d="M61 431q0 217 157 346q115 94 272 94q217 0 364 -185q56 74 105 110q103 75 245 75q144 0 239 -90q96 -90 96 -232v-31h-616q-1 -21 -1 -30q0 -164 73 -283q97 -159 280 -159q124 0 239 65v-39q-135 -97 -301 -97q-223 0 -352 202q-132 -202 -355 -202q-173 0 -292 104 q-153 132 -153 352zM192 499q0 -195 96 -338q45 -66 113 -103.5t142 -37.5q121 0 190 98q57 81 57 217q0 210 -99 355q-92 135 -237 135q-108 0 -188 -89q-74 -81 -74 -237zM927 568h471q-4 93 -41 154q-62 103 -190 103q-209 0 -240 -257z" />
<glyph unicode="&#x178;" horiz-adv-x="1238" d="M-27 1321v44q105 -7 228 -7q104 0 234 7v-44q-68 -3 -90.5 -16t-22.5 -49q0 -40 33 -98l312 -560l308 601q23 45 23 74q0 25 -21 34.5t-90 13.5v44q100 -7 177 -7q66 0 174 7v-44q-82 -4 -116.5 -26.5t-73.5 -94.5l-344 -653v-254q0 -89 9 -136t30 -72q17 -20 41.5 -28.5 t81.5 -12.5v-44q-121 7 -235 7q-138 0 -243 -7v44q98 5 129 41q22 25 30.5 72t8.5 136v212l-397 705q-38 68 -70.5 87t-115.5 24zM407 1587q0 37 25.5 61.5t62.5 24.5q34 0 59 -25.5t25 -60.5t-25 -60.5t-60 -25.5q-36 0 -61.5 25.5t-25.5 60.5zM715 1587q0 37 25.5 61.5 t62.5 24.5q34 0 59 -25.5t25 -60.5t-25 -60.5t-60 -25.5q-36 0 -61.5 25.5t-25.5 60.5z" />
<glyph unicode="&#x2c6;" horiz-adv-x="1024" d="M286 1089q134 92 154 201h145q20 -110 153 -201l-6 -14q-126 14 -220 112q-92 -98 -220 -112z" />
<glyph unicode="&#x2dc;" horiz-adv-x="1024" d="M207 1108q80 162 179 162q39 0 148 -46q100 -42 149 -42q33 0 52.5 14.5t52.5 65.5l29 -14q-50 -90 -87.5 -126t-82.5 -36q-46 0 -160 44q-117 44 -148 44q-58 0 -103 -81z" />
<glyph unicode="&#x2000;" horiz-adv-x="881" />
<glyph unicode="&#x2001;" horiz-adv-x="1762" />
<glyph unicode="&#x2002;" horiz-adv-x="881" />
<glyph unicode="&#x2003;" horiz-adv-x="1762" />
<glyph unicode="&#x2004;" horiz-adv-x="587" />
<glyph unicode="&#x2005;" horiz-adv-x="440" />
<glyph unicode="&#x2006;" horiz-adv-x="293" />
<glyph unicode="&#x2007;" horiz-adv-x="293" />
<glyph unicode="&#x2008;" horiz-adv-x="220" />
<glyph unicode="&#x2009;" horiz-adv-x="352" />
<glyph unicode="&#x200a;" horiz-adv-x="97" />
<glyph unicode="&#x2010;" horiz-adv-x="506" d="M0 412v99h506v-99h-506z" />
<glyph unicode="&#x2011;" horiz-adv-x="506" d="M0 412v99h506v-99h-506z" />
<glyph unicode="&#x2012;" horiz-adv-x="506" d="M0 412v99h506v-99h-506z" />
<glyph unicode="&#x2013;" horiz-adv-x="1296" d="M142 414v93h1012v-93h-1012z" />
<glyph unicode="&#x2014;" horiz-adv-x="1285" d="M0 414v93h1285v-93h-1285z" />
<glyph unicode="&#x2018;" horiz-adv-x="471" d="M131 988q0 129 69.5 253t190.5 211l22 -27q-136 -126 -136 -278q0 -82 37 -148l-170 -103q-13 44 -13 92z" />
<glyph unicode="&#x2019;" horiz-adv-x="471" d="M58 923q136 126 136 278q0 83 -37 148l170 103q13 -43 13 -92q0 -129 -69.5 -253t-190.5 -211z" />
<glyph unicode="&#x201a;" horiz-adv-x="334" d="M-24 -319q136 127 136 278q0 83 -37 149l170 103q13 -43 13 -92q0 -129 -69.5 -253t-190.5 -211z" />
<glyph unicode="&#x201c;" horiz-adv-x="731" d="M131 988q0 129 69.5 253t190.5 211l22 -27q-136 -126 -136 -278q0 -82 37 -148l-170 -103q-13 44 -13 92zM390 992q0 126 70 249.5t190 210.5l22 -27q-136 -126 -136 -278q0 -82 37 -148l-170 -103q-13 43 -13 96z" />
<glyph unicode="&#x201d;" horiz-adv-x="731" d="M58 923q136 126 136 278q0 83 -37 148l170 103q13 -43 13 -92q0 -129 -69.5 -253t-190.5 -211zM317 923q136 126 136 278q0 83 -36 148l170 103q12 -44 12 -92q0 -129 -69.5 -253t-189.5 -211z" />
<glyph unicode="&#x201e;" horiz-adv-x="731" d="M58 -319q136 127 136 278q0 83 -37 149l170 103q13 -43 13 -92q0 -129 -69.5 -253t-190.5 -211zM317 -319q136 126 136 278q0 83 -36 149l170 103q12 -44 12 -92q0 -129 -69.5 -253t-189.5 -211z" />
<glyph unicode="&#x2022;" horiz-adv-x="1365" d="M401 694q0 121 84 202q86 82 204 82q113 0 196 -83q84 -83 84 -201t-83 -201t-201 -83q-116 0 -199 82q-85 84 -85 202z" />
<glyph unicode="&#x2026;" horiz-adv-x="1198" d="M100 85q0 43 29.5 72t73.5 29q40 0 68.5 -29.5t28.5 -69.5q0 -42 -29.5 -71.5t-70.5 -29.5t-70.5 29t-29.5 70zM499 85q0 43 29.5 72t73.5 29q40 0 68.5 -29.5t28.5 -69.5q0 -42 -29.5 -71.5t-70.5 -29.5t-70.5 29t-29.5 70zM899 85q0 43 29.5 72t73.5 29 q40 0 68.5 -29.5t28.5 -69.5q0 -42 -29.5 -71.5t-70.5 -29.5t-70.5 29t-29.5 70z" />
<glyph unicode="&#x202f;" horiz-adv-x="352" />
<glyph unicode="&#x2039;" horiz-adv-x="403" d="M61 445l196 304h64l-133 -304l133 -311h-63z" />
<glyph unicode="&#x203a;" horiz-adv-x="403" d="M82 134l133 304l-133 311h63l197 -310l-197 -305h-63z" />
<glyph unicode="&#x205f;" horiz-adv-x="440" />
<glyph unicode="&#x2122;" horiz-adv-x="1897" d="M34 1169l5 196h714l12 -196h-44q-4 83 -33 114t-104 31h-136v-556q0 -85 16.5 -107.5t80.5 -25.5v-38q-80 4 -144 4q-79 0 -154 -4v38q66 3 83 25.5t17 107.5v556h-93q-102 0 -138.5 -30t-39.5 -115h-42zM827 586v38q62 5 78.5 27.5t18.5 106.5l9 436v14q0 79 -16.5 98 t-86.5 21v39q58 -5 96 -5q30 0 90 4l312 -640l281 640q47 -4 99 -4q56 0 111 5v-39q-68 -2 -84 -21t-18 -100v-12l8 -436q2 -85 19.5 -108t84.5 -25v-39q-68 4 -144 4q-73 0 -153 -4v39q62 3 78 23t16 92v18l-11 514l-295 -693h-30l-309 637v-458q0 -83 15 -105t75 -29v-38 q-64 5 -121 5q-49 0 -123 -5z" />
<glyph unicode="&#x25fc;" horiz-adv-x="845" d="M0 0v845h845v-845h-845z" />
</font>
</defs>
</svg>
